<svg width="470" height="219" viewBox="0 0 470 219" fill="none" xmlns="http://www.w3.org/2000/svg">
<g filter="url(#filter0_b_301_11)">
<rect width="470" height="219" rx="6.5" fill="url(#paint0_radial_301_11)" fill-opacity="0.6"/>
<rect x="0.543384" y="0.543384" width="468.913" height="217.913" rx="5.95662" stroke="url(#paint1_linear_301_11)" stroke-width="1.08677"/>
</g>
<path d="M30.2812 46.1406C30.4583 45.7656 30.6823 45.4896 30.9531 45.3125C31.2292 45.1302 31.5599 45.0391 31.9453 45.0391C32.6484 45.0391 33.1432 45.3125 33.4297 45.8594C33.7214 46.401 33.8672 47.4245 33.8672 48.9297V54H32.5547V48.9922C32.5547 47.7578 32.4844 46.9922 32.3438 46.6953C32.2083 46.3932 31.9583 46.2422 31.5938 46.2422C31.1771 46.2422 30.8906 46.4036 30.7344 46.7266C30.5833 47.0443 30.5078 47.7995 30.5078 48.9922V54H29.1953V48.9922C29.1953 47.7422 29.1198 46.9714 28.9688 46.6797C28.8229 46.388 28.5573 46.2422 28.1719 46.2422C27.7917 46.2422 27.526 46.4036 27.375 46.7266C27.2292 47.0443 27.1562 47.7995 27.1562 48.9922V54H25.8516V45.25H27.1562V46C27.3281 45.6875 27.5417 45.4505 27.7969 45.2891C28.0573 45.1224 28.3516 45.0391 28.6797 45.0391C29.0755 45.0391 29.4036 45.1302 29.6641 45.3125C29.9297 45.4948 30.1354 45.7708 30.2812 46.1406ZM41.0238 51.1875C40.7842 51.7969 40.4795 52.599 40.1097 53.5938C39.5941 54.9688 39.2477 55.8073 39.0706 56.1094C38.831 56.5156 38.5316 56.8203 38.1722 57.0234C37.8128 57.2266 37.3935 57.3281 36.9144 57.3281H35.7581V56.125H36.6097C37.0316 56.125 37.3623 56.0026 37.6019 55.7578C37.8415 55.513 38.1461 54.8802 38.5159 53.8594L35.1331 45.25H36.6566L39.2503 52.0938L41.805 45.25H43.3284L41.0238 51.1875ZM51.9303 53.5547C51.5449 53.7786 51.1465 53.9453 50.735 54.0547C50.3288 54.1693 49.9121 54.2266 49.485 54.2266C48.1308 54.2266 47.0709 53.8203 46.3053 53.0078C45.5449 52.1953 45.1647 51.0703 45.1647 49.6328C45.1647 48.1953 45.5449 47.0703 46.3053 46.2578C47.0709 45.4453 48.1308 45.0391 49.485 45.0391C49.9069 45.0391 50.3183 45.0938 50.7194 45.2031C51.1204 45.3125 51.5241 45.4818 51.9303 45.7109V47.2188C51.5501 46.8802 51.1673 46.6354 50.7819 46.4844C50.4017 46.3333 49.9694 46.2578 49.485 46.2578C48.584 46.2578 47.8913 46.5495 47.4069 47.1328C46.9225 47.7161 46.6803 48.5495 46.6803 49.6328C46.6803 50.7109 46.9225 51.5443 47.4069 52.1328C47.8965 52.7161 48.5892 53.0078 49.485 53.0078C49.985 53.0078 50.4329 52.9323 50.8288 52.7812C51.2246 52.625 51.5918 52.3854 51.9303 52.0625V53.5547ZM57.7744 46.2578C57.0452 46.2578 56.4931 46.5417 56.1181 47.1094C55.7431 47.6771 55.5556 48.5182 55.5556 49.6328C55.5556 50.7422 55.7431 51.5833 56.1181 52.1562C56.4931 52.724 57.0452 53.0078 57.7744 53.0078C58.5088 53.0078 59.0634 52.724 59.4384 52.1562C59.8134 51.5833 60.0009 50.7422 60.0009 49.6328C60.0009 48.5182 59.8134 47.6771 59.4384 47.1094C59.0634 46.5417 58.5088 46.2578 57.7744 46.2578ZM57.7744 45.0391C58.9879 45.0391 59.915 45.4323 60.5556 46.2188C61.2015 47.0052 61.5244 48.1432 61.5244 49.6328C61.5244 51.1276 61.2041 52.2682 60.5634 53.0547C59.9228 53.8359 58.9931 54.2266 57.7744 54.2266C56.5608 54.2266 55.6338 53.8359 54.9931 53.0547C54.3525 52.2682 54.0322 51.1276 54.0322 49.6328C54.0322 48.1432 54.3525 47.0052 54.9931 46.2188C55.6338 45.4323 56.5608 45.0391 57.7744 45.0391ZM63.0638 45.25H64.5559L67.095 52.5938L69.6419 45.25H71.1341L68.0247 54H66.1731L63.0638 45.25ZM80.3531 48.9062V49.6094H74.1266V49.6562C74.0849 50.849 74.3115 51.7057 74.8063 52.2266C75.3063 52.7474 76.0094 53.0078 76.9156 53.0078C77.374 53.0078 77.8531 52.9349 78.3531 52.7891C78.8531 52.6432 79.387 52.4219 79.9547 52.125V53.5547C79.4078 53.7786 78.8792 53.9453 78.3688 54.0547C77.8635 54.1693 77.374 54.2266 76.9 54.2266C75.5406 54.2266 74.4781 53.8203 73.7125 53.0078C72.9469 52.1901 72.5641 51.0651 72.5641 49.6328C72.5641 48.237 72.9391 47.1224 73.6891 46.2891C74.4391 45.4557 75.4391 45.0391 76.6891 45.0391C77.8036 45.0391 78.6813 45.4167 79.3219 46.1719C79.9677 46.9271 80.3115 47.8385 80.3531 48.9062ZM78.9156 48.4844C78.8531 47.8802 78.6318 47.3594 78.2516 46.9219C77.8766 46.4792 77.3349 46.2578 76.6266 46.2578C75.9339 46.2578 75.3635 46.487 74.9156 46.9453C74.4677 47.4036 74.2229 47.9193 74.1813 48.4922L78.9156 48.4844ZM89.9472 47.0547C89.6399 46.8151 89.3274 46.6406 89.0097 46.5312C88.692 46.4219 88.343 46.3672 87.9628 46.3672C87.067 46.3672 86.3821 46.6484 85.9081 47.2109C85.4342 47.7734 85.1972 48.5859 85.1972 49.6484V54H83.7519V45.25H85.1972V46.9609C85.4368 46.3411 85.804 45.8672 86.2988 45.5391C86.7988 45.2057 87.3899 45.0391 88.0722 45.0391C88.4264 45.0391 88.7571 45.0833 89.0644 45.1719C89.3717 45.2604 89.6659 45.3984 89.9472 45.5859V47.0547Z" fill="#B4FDFE"/>
<path d="M93.2834 50.8438H96.0334V54H93.2834V50.8438ZM106.737 49.6328C106.737 48.5182 106.56 47.6771 106.206 47.1094C105.851 46.5417 105.328 46.2578 104.635 46.2578C103.937 46.2578 103.409 46.5443 103.049 47.1172C102.69 47.6849 102.51 48.5234 102.51 49.6328C102.51 50.737 102.69 51.5755 103.049 52.1484C103.409 52.7214 103.937 53.0078 104.635 53.0078C105.328 53.0078 105.851 52.724 106.206 52.1562C106.56 51.5885 106.737 50.7474 106.737 49.6328ZM102.51 46.3672C102.739 45.9401 103.055 45.612 103.456 45.3828C103.862 45.1536 104.331 45.0391 104.862 45.0391C105.914 45.0391 106.742 45.4453 107.346 46.2578C107.95 47.0651 108.253 48.1797 108.253 49.6016C108.253 51.0443 107.948 52.1771 107.338 53C106.734 53.8177 105.904 54.2266 104.846 54.2266C104.325 54.2266 103.864 54.1146 103.463 53.8906C103.068 53.6615 102.75 53.3307 102.51 52.8984V54H101.073V41.8438H102.51V46.3672ZM110.409 50.6875V45.2656H111.847V50.6875C111.847 51.474 111.985 52.0521 112.261 52.4219C112.542 52.7917 112.974 52.9766 113.558 52.9766C114.235 52.9766 114.753 52.7396 115.112 52.2656C115.472 51.7865 115.651 51.1016 115.651 50.2109V45.2656H117.097V54H115.651V52.6875C115.396 53.1927 115.047 53.5755 114.604 53.8359C114.167 54.0964 113.654 54.2266 113.065 54.2266C112.169 54.2266 111.503 53.9349 111.065 53.3516C110.628 52.763 110.409 51.875 110.409 50.6875ZM120.675 45.2812H124.355V52.8828H127.206V54H120.066V52.8828H122.917V46.3984H120.675V45.2812ZM122.917 41.8828H124.355V43.6953H122.917V41.8828ZM133.144 50.8359C133.144 51.4818 133.261 51.9688 133.496 52.2969C133.735 52.625 134.087 52.7891 134.55 52.7891H136.23V54H134.41C133.55 54 132.884 53.7266 132.41 53.1797C131.941 52.6276 131.707 51.8464 131.707 50.8359V42.9219H129.402V41.7969H133.144V50.8359ZM143.551 46.3672V41.8438H144.988V54H143.551V52.8984C143.311 53.3307 142.991 53.6615 142.59 53.8906C142.194 54.1146 141.736 54.2266 141.215 54.2266C140.157 54.2266 139.324 53.8177 138.715 53C138.111 52.1771 137.808 51.0443 137.808 49.6016C137.808 48.1797 138.113 47.0651 138.723 46.2578C139.332 45.4453 140.163 45.0391 141.215 45.0391C141.741 45.0391 142.204 45.1536 142.605 45.3828C143.006 45.6068 143.321 45.9349 143.551 46.3672ZM139.324 49.6328C139.324 50.7474 139.501 51.5885 139.855 52.1562C140.209 52.724 140.733 53.0078 141.426 53.0078C142.118 53.0078 142.644 52.7214 143.004 52.1484C143.368 51.5755 143.551 50.737 143.551 49.6328C143.551 48.5234 143.368 47.6849 143.004 47.1172C142.644 46.5443 142.118 46.2578 141.426 46.2578C140.733 46.2578 140.209 46.5417 139.855 47.1094C139.501 47.6771 139.324 48.5182 139.324 49.6328ZM146.168 42.3359H147.707L148.824 51.8047L150.152 45.5391H151.801L153.145 51.8203L154.262 42.3359H155.801L154.059 54H152.567L150.981 47.0703L149.402 54H147.91L146.168 42.3359ZM157.958 45.2812H161.637V52.8828H164.489V54H157.348V52.8828H160.2V46.3984H157.958V45.2812ZM160.2 41.8828H161.637V43.6953H160.2V41.8828ZM169.606 42.7656V45.25H172.872V46.3672H169.606V51.1172C169.606 51.763 169.729 52.2135 169.973 52.4688C170.218 52.724 170.645 52.8516 171.255 52.8516H172.872V54H171.114C170.036 54 169.276 53.7839 168.833 53.3516C168.39 52.9193 168.169 52.1745 168.169 51.1172V46.3672H165.833V45.25H168.169V42.7656H169.606ZM182.341 48.5781V54H180.896V48.5781C180.896 47.7917 180.758 47.2135 180.482 46.8438C180.206 46.474 179.773 46.2891 179.185 46.2891C178.513 46.2891 177.995 46.5286 177.63 47.0078C177.271 47.4818 177.091 48.1641 177.091 49.0547V54H175.653V41.8438H177.091V46.5625C177.346 46.0625 177.693 45.6849 178.13 45.4297C178.568 45.1693 179.086 45.0391 179.685 45.0391C180.575 45.0391 181.239 45.3333 181.677 45.9219C182.12 46.5052 182.341 47.3906 182.341 48.5781ZM190.521 48.1797C190.521 46.4661 190.344 45.2422 189.99 44.5078C189.641 43.7734 189.065 43.4062 188.263 43.4062C187.466 43.4062 186.891 43.7734 186.537 44.5078C186.188 45.2422 186.013 46.4661 186.013 48.1797C186.013 49.888 186.188 51.1094 186.537 51.8438C186.891 52.5781 187.466 52.9453 188.263 52.9453C189.065 52.9453 189.641 52.5807 189.99 51.8516C190.344 51.1172 190.521 49.8932 190.521 48.1797ZM192.169 48.1797C192.169 50.2109 191.846 51.7266 191.201 52.7266C190.56 53.7266 189.581 54.2266 188.263 54.2266C186.945 54.2266 185.966 53.7292 185.326 52.7344C184.685 51.7396 184.365 50.2214 184.365 48.1797C184.365 46.1432 184.685 44.625 185.326 43.625C185.971 42.625 186.951 42.125 188.263 42.125C189.581 42.125 190.56 42.625 191.201 43.625C191.846 44.625 192.169 46.1432 192.169 48.1797ZM195.701 52.8984V57.3281H194.256V45.25H195.701V46.3672C195.941 45.9349 196.258 45.6068 196.654 45.3828C197.055 45.1536 197.516 45.0391 198.037 45.0391C199.094 45.0391 199.922 45.4479 200.521 46.2656C201.125 47.0833 201.428 48.2161 201.428 49.6641C201.428 51.0859 201.125 52.2031 200.521 53.0156C199.917 53.8229 199.089 54.2266 198.037 54.2266C197.506 54.2266 197.039 54.1146 196.638 53.8906C196.243 53.6615 195.93 53.3307 195.701 52.8984ZM199.92 49.6328C199.92 48.5182 199.743 47.6771 199.388 47.1094C199.039 46.5417 198.519 46.2578 197.826 46.2578C197.128 46.2578 196.599 46.5443 196.24 47.1172C195.881 47.6849 195.701 48.5234 195.701 49.6328C195.701 50.737 195.881 51.5755 196.24 52.1484C196.599 52.7214 197.128 53.0078 197.826 53.0078C198.519 53.0078 199.039 52.724 199.388 52.1562C199.743 51.5885 199.92 50.7474 199.92 49.6328ZM206.889 42.7656V45.25H210.154V46.3672H206.889V51.1172C206.889 51.763 207.011 52.2135 207.256 52.4688C207.501 52.724 207.928 52.8516 208.537 52.8516H210.154V54H208.397C207.318 54 206.558 53.7839 206.115 53.3516C205.673 52.9193 205.451 52.1745 205.451 51.1172V46.3672H203.115V45.25H205.451V42.7656H206.889ZM213.881 45.2812H217.561V52.8828H220.413V54H213.272V52.8828H216.123V46.3984H213.881V45.2812ZM216.123 41.8828H217.561V43.6953H216.123V41.8828ZM225.546 46.2578C224.816 46.2578 224.264 46.5417 223.889 47.1094C223.514 47.6771 223.327 48.5182 223.327 49.6328C223.327 50.7422 223.514 51.5833 223.889 52.1562C224.264 52.724 224.816 53.0078 225.546 53.0078C226.28 53.0078 226.835 52.724 227.21 52.1562C227.585 51.5833 227.772 50.7422 227.772 49.6328C227.772 48.5182 227.585 47.6771 227.21 47.1094C226.835 46.5417 226.28 46.2578 225.546 46.2578ZM225.546 45.0391C226.759 45.0391 227.686 45.4323 228.327 46.2188C228.973 47.0052 229.296 48.1432 229.296 49.6328C229.296 51.1276 228.975 52.2682 228.335 53.0547C227.694 53.8359 226.764 54.2266 225.546 54.2266C224.332 54.2266 223.405 53.8359 222.764 53.0547C222.124 52.2682 221.803 51.1276 221.803 49.6328C221.803 48.1432 222.124 47.0052 222.764 46.2188C223.405 45.4323 224.332 45.0391 225.546 45.0391ZM238.265 48.5781V54H236.819V48.5781C236.819 47.7917 236.681 47.2135 236.405 46.8438C236.129 46.474 235.697 46.2891 235.108 46.2891C234.437 46.2891 233.918 46.5286 233.554 47.0078C233.194 47.4818 233.015 48.1641 233.015 49.0547V54H231.577V45.25H233.015V46.5625C233.27 46.0625 233.616 45.6849 234.054 45.4297C234.491 45.1693 235.009 45.0391 235.608 45.0391C236.499 45.0391 237.163 45.3333 237.601 45.9219C238.043 46.5052 238.265 47.3906 238.265 48.5781ZM246.976 45.5547V46.9609C246.564 46.7214 246.15 46.5417 245.734 46.4219C245.317 46.3021 244.893 46.2422 244.46 46.2422C243.809 46.2422 243.322 46.349 242.999 46.5625C242.682 46.7708 242.523 47.0911 242.523 47.5234C242.523 47.9141 242.643 48.2057 242.882 48.3984C243.122 48.5911 243.718 48.7786 244.671 48.9609L245.249 49.0703C245.963 49.2057 246.502 49.4766 246.867 49.8828C247.236 50.2891 247.421 50.8177 247.421 51.4688C247.421 52.3333 247.114 53.0104 246.499 53.5C245.885 53.9844 245.031 54.2266 243.937 54.2266C243.505 54.2266 243.051 54.1797 242.577 54.0859C242.104 53.9974 241.591 53.862 241.038 53.6797V52.1953C241.575 52.4714 242.088 52.6797 242.577 52.8203C243.067 52.9557 243.531 53.0234 243.968 53.0234C244.604 53.0234 245.096 52.8958 245.445 52.6406C245.794 52.3802 245.968 52.0182 245.968 51.5547C245.968 50.888 245.33 50.4271 244.054 50.1719L243.992 50.1562L243.452 50.0469C242.624 49.8854 242.02 49.6146 241.64 49.2344C241.26 48.849 241.07 48.3255 241.07 47.6641C241.07 46.8255 241.354 46.1797 241.921 45.7266C242.489 45.2682 243.299 45.0391 244.351 45.0391C244.82 45.0391 245.27 45.0833 245.702 45.1719C246.135 45.2552 246.559 45.3828 246.976 45.5547ZM255.375 41.0781C254.682 42.2656 254.164 43.4505 253.82 44.6328C253.481 45.8099 253.312 46.9974 253.312 48.1953C253.312 49.388 253.481 50.5755 253.82 51.7578C254.164 52.9401 254.682 54.1302 255.375 55.3281H254.125C253.338 54.0885 252.752 52.8828 252.367 51.7109C251.981 50.5339 251.789 49.362 251.789 48.1953C251.789 47.0339 251.981 45.8646 252.367 44.6875C252.752 43.5104 253.338 42.3073 254.125 41.0781H255.375ZM266.078 54.3984V55.5234H265.578C264.281 55.5234 263.411 55.3307 262.969 54.9453C262.531 54.5599 262.312 53.7917 262.312 52.6406V51.0781C262.312 50.5104 262.151 50.0208 261.828 49.6094C261.51 49.1979 261.016 48.9922 260.344 48.9922H259.391V47.875H260.344C261.078 47.875 261.589 47.7005 261.875 47.3516C262.167 47.0026 262.312 46.4896 262.312 45.8125V43.7812C262.312 42.6302 262.531 41.8646 262.969 41.4844C263.411 41.099 264.281 40.9062 265.578 40.9062H266.078V42.0234H265.531C264.802 42.0234 264.326 42.138 264.102 42.3672C263.883 42.5911 263.773 43.0729 263.773 43.8125V45.9062C263.773 46.8229 263.594 47.4401 263.234 47.7578C262.875 48.0703 262.174 48.2969 261.133 48.4375C262.143 48.5573 262.836 48.7891 263.211 49.1328C263.586 49.4714 263.773 50.0859 263.773 50.9766V52.6094C263.773 53.3542 263.883 53.8385 264.102 54.0625C264.326 54.2865 264.802 54.3984 265.531 54.3984H266.078ZM70.4934 72.5781V78H69.0481V72.5781C69.0481 71.7917 68.9101 71.2135 68.6341 70.8438C68.358 70.474 67.9257 70.2891 67.3372 70.2891C66.6653 70.2891 66.1471 70.5286 65.7825 71.0078C65.4231 71.4818 65.2434 72.1641 65.2434 73.0547V78H63.8059V69.25H65.2434V70.5625C65.4986 70.0625 65.845 69.6849 66.2825 69.4297C66.72 69.1693 67.2382 69.0391 67.8372 69.0391C68.7278 69.0391 69.3919 69.3333 69.8294 69.9219C70.2721 70.5052 70.4934 71.3906 70.4934 72.5781ZM77.0875 73.6016H76.6109C75.7724 73.6016 75.1396 73.75 74.7125 74.0469C74.2906 74.3385 74.0797 74.776 74.0797 75.3594C74.0797 75.8854 74.2385 76.2943 74.5563 76.5859C74.874 76.8776 75.3141 77.0234 75.8766 77.0234C76.6682 77.0234 77.2906 76.75 77.7438 76.2031C78.1969 75.651 78.426 74.8906 78.4313 73.9219V73.6016H77.0875ZM79.8766 73.0078V78H78.4313V76.7031C78.124 77.224 77.7359 77.6094 77.2672 77.8594C76.8036 78.1042 76.2385 78.2266 75.5719 78.2266C74.6813 78.2266 73.9703 77.9766 73.4391 77.4766C72.9078 76.9714 72.6422 76.2969 72.6422 75.4531C72.6422 74.4792 72.9677 73.7396 73.6188 73.2344C74.275 72.7292 75.2359 72.4766 76.5016 72.4766H78.4313V72.25C78.426 71.5521 78.249 71.0469 77.9 70.7344C77.551 70.4167 76.9938 70.2578 76.2281 70.2578C75.7385 70.2578 75.2438 70.3281 74.7438 70.4688C74.2438 70.6094 73.7568 70.8151 73.2828 71.0859V69.6484C73.8141 69.4453 74.3219 69.2943 74.8063 69.1953C75.2958 69.0911 75.7698 69.0391 76.2281 69.0391C76.9521 69.0391 77.5693 69.1458 78.0797 69.3594C78.5953 69.5729 79.012 69.8932 79.3297 70.3203C79.5276 70.5807 79.6682 70.9036 79.7516 71.2891C79.8349 71.6693 79.8766 72.2422 79.8766 73.0078ZM86.205 70.1406C86.3821 69.7656 86.606 69.4896 86.8769 69.3125C87.1529 69.1302 87.4836 69.0391 87.8691 69.0391C88.5722 69.0391 89.067 69.3125 89.3534 69.8594C89.6451 70.401 89.7909 71.4245 89.7909 72.9297V78H88.4784V72.9922C88.4784 71.7578 88.4081 70.9922 88.2675 70.6953C88.1321 70.3932 87.8821 70.2422 87.5175 70.2422C87.1008 70.2422 86.8144 70.4036 86.6581 70.7266C86.5071 71.0443 86.4316 71.7995 86.4316 72.9922V78H85.1191V72.9922C85.1191 71.7422 85.0435 70.9714 84.8925 70.6797C84.7467 70.388 84.481 70.2422 84.0956 70.2422C83.7154 70.2422 83.4498 70.4036 83.2988 70.7266C83.1529 71.0443 83.08 71.7995 83.08 72.9922V78H81.7753V69.25H83.08V70C83.2519 69.6875 83.4654 69.4505 83.7206 69.2891C83.981 69.1224 84.2753 69.0391 84.6034 69.0391C84.9993 69.0391 85.3274 69.1302 85.5878 69.3125C85.8534 69.4948 86.0592 69.7708 86.205 70.1406ZM98.9944 72.9062V73.6094H92.7678V73.6562C92.7261 74.849 92.9527 75.7057 93.4475 76.2266C93.9475 76.7474 94.6506 77.0078 95.5569 77.0078C96.0152 77.0078 96.4944 76.9349 96.9944 76.7891C97.4944 76.6432 98.0282 76.4219 98.5959 76.125V77.5547C98.0491 77.7786 97.5204 77.9453 97.01 78.0547C96.5048 78.1693 96.0152 78.2266 95.5413 78.2266C94.1819 78.2266 93.1194 77.8203 92.3538 77.0078C91.5881 76.1901 91.2053 75.0651 91.2053 73.6328C91.2053 72.237 91.5803 71.1224 92.3303 70.2891C93.0803 69.4557 94.0803 69.0391 95.3303 69.0391C96.4449 69.0391 97.3225 69.4167 97.9631 70.1719C98.609 70.9271 98.9527 71.8385 98.9944 72.9062ZM97.5569 72.4844C97.4944 71.8802 97.273 71.3594 96.8928 70.9219C96.5178 70.4792 95.9761 70.2578 95.2678 70.2578C94.5751 70.2578 94.0048 70.487 93.5569 70.9453C93.109 71.4036 92.8642 71.9193 92.8225 72.4922L97.5569 72.4844ZM102.917 69.2578H105.354V72.0781H102.917V69.2578ZM102.917 75.1562H105.354V78H102.917V75.1562ZM291.774 65.8281V70.6953H290.024V65.8281H291.774ZM298.751 75.1797H301.189V77.25L299.454 80.6172L297.892 80.625L298.751 77.25V75.1797ZM71.0325 96.9062V97.6094H64.8059V97.6562C64.7643 98.849 64.9908 99.7057 65.4856 100.227C65.9856 100.747 66.6888 101.008 67.595 101.008C68.0533 101.008 68.5325 100.935 69.0325 100.789C69.5325 100.643 70.0664 100.422 70.6341 100.125V101.555C70.0872 101.779 69.5585 101.945 69.0481 102.055C68.5429 102.169 68.0533 102.227 67.5794 102.227C66.22 102.227 65.1575 101.82 64.3919 101.008C63.6263 100.19 63.2434 99.0651 63.2434 97.6328C63.2434 96.237 63.6184 95.1224 64.3684 94.2891C65.1184 93.4557 66.1184 93.0391 67.3684 93.0391C68.483 93.0391 69.3606 93.4167 70.0013 94.1719C70.6471 94.9271 70.9908 95.8385 71.0325 96.9062ZM69.595 96.4844C69.5325 95.8802 69.3111 95.3594 68.9309 94.9219C68.5559 94.4792 68.0143 94.2578 67.3059 94.2578C66.6132 94.2578 66.0429 94.487 65.595 94.9453C65.1471 95.4036 64.9023 95.9193 64.8606 96.4922L69.595 96.4844ZM79.8141 96.5781V102H78.3688V96.5781C78.3688 95.7917 78.2307 95.2135 77.9547 94.8438C77.6786 94.474 77.2464 94.2891 76.6578 94.2891C75.9859 94.2891 75.4677 94.5286 75.1031 95.0078C74.7438 95.4818 74.5641 96.1641 74.5641 97.0547V102H73.1266V93.25H74.5641V94.5625C74.8193 94.0625 75.1656 93.6849 75.6031 93.4297C76.0406 93.1693 76.5589 93.0391 77.1578 93.0391C78.0484 93.0391 78.7125 93.3333 79.15 93.9219C79.5927 94.5052 79.8141 95.3906 79.8141 96.5781ZM81.705 93.25H83.1972L85.7363 100.594L88.2831 93.25H89.7753L86.6659 102H84.8144L81.705 93.25ZM93.5959 93.2578H96.0334V96.0781H93.5959V93.2578ZM93.5959 99.1562H96.0334V102H93.5959V99.1562ZM298.751 99.1797H301.189V101.25L299.454 104.617L297.892 104.625L298.751 101.25V99.1797ZM64.1263 113.844H65.6106V120.883L69.3841 117.25H71.1341L67.6888 120.547L71.6731 126H69.9153L66.6809 121.484L65.6106 122.492V126H64.1263V113.844ZM80.3531 120.906V121.609H74.1266V121.656C74.0849 122.849 74.3115 123.706 74.8063 124.227C75.3063 124.747 76.0094 125.008 76.9156 125.008C77.374 125.008 77.8531 124.935 78.3531 124.789C78.8531 124.643 79.387 124.422 79.9547 124.125V125.555C79.4078 125.779 78.8792 125.945 78.3688 126.055C77.8635 126.169 77.374 126.227 76.9 126.227C75.5406 126.227 74.4781 125.82 73.7125 125.008C72.9469 124.19 72.5641 123.065 72.5641 121.633C72.5641 120.237 72.9391 119.122 73.6891 118.289C74.4391 117.456 75.4391 117.039 76.6891 117.039C77.8036 117.039 78.6813 117.417 79.3219 118.172C79.9677 118.927 80.3115 119.839 80.3531 120.906ZM78.9156 120.484C78.8531 119.88 78.6318 119.359 78.2516 118.922C77.8766 118.479 77.3349 118.258 76.6266 118.258C75.9339 118.258 75.3635 118.487 74.9156 118.945C74.4677 119.404 74.2229 119.919 74.1813 120.492L78.9156 120.484ZM87.6269 123.188C87.3873 123.797 87.0826 124.599 86.7128 125.594C86.1972 126.969 85.8508 127.807 85.6738 128.109C85.4342 128.516 85.1347 128.82 84.7753 129.023C84.4159 129.227 83.9967 129.328 83.5175 129.328H82.3613V128.125H83.2128C83.6347 128.125 83.9654 128.003 84.205 127.758C84.4446 127.513 84.7493 126.88 85.1191 125.859L81.7363 117.25H83.2597L85.8534 124.094L88.4081 117.25H89.9316L87.6269 123.188ZM93.5959 117.258H96.0334V120.078H93.5959V117.258ZM93.5959 123.156H96.0334V126H93.5959V123.156ZM114.683 113.828V118.695H112.933V113.828H114.683ZM124.003 113.828V118.695H122.253V113.828H124.003ZM130.98 123.18H133.418V125.25L131.683 128.617L130.121 128.625L130.98 125.25V123.18ZM67.0794 162.766V165.25H70.345V166.367H67.0794V171.117C67.0794 171.763 67.2018 172.214 67.4466 172.469C67.6914 172.724 68.1184 172.852 68.7278 172.852H70.345V174H68.5872C67.5091 174 66.7486 173.784 66.3059 173.352C65.8632 172.919 65.6419 172.174 65.6419 171.117V166.367H63.3059V165.25H65.6419V162.766H67.0794ZM76.4156 166.258C75.6865 166.258 75.1344 166.542 74.7594 167.109C74.3844 167.677 74.1969 168.518 74.1969 169.633C74.1969 170.742 74.3844 171.583 74.7594 172.156C75.1344 172.724 75.6865 173.008 76.4156 173.008C77.15 173.008 77.7047 172.724 78.0797 172.156C78.4547 171.583 78.6422 170.742 78.6422 169.633C78.6422 168.518 78.4547 167.677 78.0797 167.109C77.7047 166.542 77.15 166.258 76.4156 166.258ZM76.4156 165.039C77.6292 165.039 78.5563 165.432 79.1969 166.219C79.8427 167.005 80.1656 168.143 80.1656 169.633C80.1656 171.128 79.8453 172.268 79.2047 173.055C78.5641 173.836 77.6344 174.227 76.4156 174.227C75.2021 174.227 74.275 173.836 73.6344 173.055C72.9938 172.268 72.6734 171.128 72.6734 169.633C72.6734 168.143 72.9938 167.005 73.6344 166.219C74.275 165.432 75.2021 165.039 76.4156 165.039ZM82.7675 161.844H84.2519V168.883L88.0253 165.25H89.7753L86.33 168.547L90.3144 174H88.5566L85.3222 169.484L84.2519 170.492V174H82.7675V161.844ZM98.9944 168.906V169.609H92.7678V169.656C92.7261 170.849 92.9527 171.706 93.4475 172.227C93.9475 172.747 94.6506 173.008 95.5569 173.008C96.0152 173.008 96.4944 172.935 96.9944 172.789C97.4944 172.643 98.0282 172.422 98.5959 172.125V173.555C98.0491 173.779 97.5204 173.945 97.01 174.055C96.5048 174.169 96.0152 174.227 95.5413 174.227C94.1819 174.227 93.1194 173.82 92.3538 173.008C91.5881 172.19 91.2053 171.065 91.2053 169.633C91.2053 168.237 91.5803 167.122 92.3303 166.289C93.0803 165.456 94.0803 165.039 95.3303 165.039C96.4449 165.039 97.3225 165.417 97.9631 166.172C98.609 166.927 98.9527 167.839 98.9944 168.906ZM97.5569 168.484C97.4944 167.88 97.273 167.359 96.8928 166.922C96.5178 166.479 95.9761 166.258 95.2678 166.258C94.5751 166.258 94.0048 166.487 93.5569 166.945C93.109 167.404 92.8642 167.919 92.8225 168.492L97.5569 168.484ZM107.776 168.578V174H106.331V168.578C106.331 167.792 106.193 167.214 105.917 166.844C105.641 166.474 105.208 166.289 104.62 166.289C103.948 166.289 103.43 166.529 103.065 167.008C102.706 167.482 102.526 168.164 102.526 169.055V174H101.088V165.25H102.526V166.562C102.781 166.062 103.128 165.685 103.565 165.43C104.003 165.169 104.521 165.039 105.12 165.039C106.01 165.039 106.674 165.333 107.112 165.922C107.555 166.505 107.776 167.391 107.776 168.578ZM112.237 165.258H114.675V168.078H112.237V165.258ZM112.237 171.156H114.675V174H112.237V171.156ZM133.324 161.828V166.695H131.574V161.828H133.324ZM142.644 161.828V166.695H140.894V161.828H142.644ZM149.621 171.18H152.059V173.25L150.324 176.617L148.762 176.625L149.621 173.25V171.18Z" fill="#F3D246"/>
<path d="M124.003 65.8281V70.6953H122.253V65.8281H124.003ZM130.644 67.6328V72.0156H132.472C133.201 72.0156 133.769 71.8229 134.175 71.4375C134.587 71.0521 134.793 70.513 134.793 69.8203C134.793 69.1276 134.589 68.5911 134.183 68.2109C133.777 67.8255 133.207 67.6328 132.472 67.6328H130.644ZM129.066 66.3359H132.472C133.774 66.3359 134.761 66.6328 135.433 67.2266C136.105 67.8151 136.441 68.6797 136.441 69.8203C136.441 70.9714 136.105 71.8411 135.433 72.4297C134.766 73.0182 133.779 73.3125 132.472 73.3125H130.644V78H129.066V66.3359ZM145.598 72.9062V73.6094H139.371V73.6562C139.329 74.849 139.556 75.7057 140.051 76.2266C140.551 76.7474 141.254 77.0078 142.16 77.0078C142.618 77.0078 143.098 76.9349 143.598 76.7891C144.098 76.6432 144.631 76.4219 145.199 76.125V77.5547C144.652 77.7786 144.124 77.9453 143.613 78.0547C143.108 78.1693 142.618 78.2266 142.144 78.2266C140.785 78.2266 139.723 77.8203 138.957 77.0078C138.191 76.1901 137.808 75.0651 137.808 73.6328C137.808 72.237 138.183 71.1224 138.933 70.2891C139.683 69.4557 140.683 69.0391 141.933 69.0391C143.048 69.0391 143.926 69.4167 144.566 70.1719C145.212 70.9271 145.556 71.8385 145.598 72.9062ZM144.16 72.4844C144.098 71.8802 143.876 71.3594 143.496 70.9219C143.121 70.4792 142.579 70.2578 141.871 70.2578C141.178 70.2578 140.608 70.487 140.16 70.9453C139.712 71.4036 139.467 71.9193 139.426 72.4922L144.16 72.4844ZM150.965 66.7656V69.25H154.231V70.3672H150.965V75.1172C150.965 75.763 151.087 76.2135 151.332 76.4688C151.577 76.724 152.004 76.8516 152.613 76.8516H154.231V78H152.473C151.395 78 150.634 77.7839 150.192 77.3516C149.749 76.9193 149.527 76.1745 149.527 75.1172V70.3672H147.192V69.25H149.527V66.7656H150.965ZM164.239 72.9062V73.6094H158.012V73.6562C157.971 74.849 158.197 75.7057 158.692 76.2266C159.192 76.7474 159.895 77.0078 160.801 77.0078C161.26 77.0078 161.739 76.9349 162.239 76.7891C162.739 76.6432 163.273 76.4219 163.84 76.125V77.5547C163.293 77.7786 162.765 77.9453 162.254 78.0547C161.749 78.1693 161.26 78.2266 160.786 78.2266C159.426 78.2266 158.364 77.8203 157.598 77.0078C156.833 76.1901 156.45 75.0651 156.45 73.6328C156.45 72.237 156.825 71.1224 157.575 70.2891C158.325 69.4557 159.325 69.0391 160.575 69.0391C161.689 69.0391 162.567 69.4167 163.208 70.1719C163.853 70.9271 164.197 71.8385 164.239 72.9062ZM162.801 72.4844C162.739 71.8802 162.517 71.3594 162.137 70.9219C161.762 70.4792 161.221 70.2578 160.512 70.2578C159.819 70.2578 159.249 70.487 158.801 70.9453C158.353 71.4036 158.109 71.9193 158.067 72.4922L162.801 72.4844ZM173.833 71.0547C173.526 70.8151 173.213 70.6406 172.895 70.5312C172.578 70.4219 172.229 70.3672 171.848 70.3672C170.953 70.3672 170.268 70.6484 169.794 71.2109C169.32 71.7734 169.083 72.5859 169.083 73.6484V78H167.637V69.25H169.083V70.9609C169.322 70.3411 169.69 69.8672 170.184 69.5391C170.684 69.2057 171.276 69.0391 171.958 69.0391C172.312 69.0391 172.643 69.0833 172.95 69.1719C173.257 69.2604 173.552 69.3984 173.833 69.5859V71.0547ZM188.247 66.7656V69.25H191.513V70.3672H188.247V75.1172C188.247 75.763 188.37 76.2135 188.615 76.4688C188.859 76.724 189.287 76.8516 189.896 76.8516H191.513V78H189.755C188.677 78 187.917 77.7839 187.474 77.3516C187.031 76.9193 186.81 76.1745 186.81 75.1172V70.3672H184.474V69.25H186.81V66.7656H188.247ZM200.982 72.5781V78H199.537V72.5781C199.537 71.7917 199.399 71.2135 199.123 70.8438C198.847 70.474 198.414 70.2891 197.826 70.2891C197.154 70.2891 196.636 70.5286 196.271 71.0078C195.912 71.4818 195.732 72.1641 195.732 73.0547V78H194.295V65.8438H195.732V70.5625C195.987 70.0625 196.334 69.6849 196.771 69.4297C197.209 69.1693 197.727 69.0391 198.326 69.0391C199.217 69.0391 199.881 69.3333 200.318 69.9219C200.761 70.5052 200.982 71.3906 200.982 72.5781ZM210.842 72.9062V73.6094H204.615V73.6562C204.574 74.849 204.8 75.7057 205.295 76.2266C205.795 76.7474 206.498 77.0078 207.404 77.0078C207.863 77.0078 208.342 76.9349 208.842 76.7891C209.342 76.6432 209.876 76.4219 210.443 76.125V77.5547C209.897 77.7786 209.368 77.9453 208.857 78.0547C208.352 78.1693 207.863 78.2266 207.389 78.2266C206.029 78.2266 204.967 77.8203 204.201 77.0078C203.436 76.1901 203.053 75.0651 203.053 73.6328C203.053 72.237 203.428 71.1224 204.178 70.2891C204.928 69.4557 205.928 69.0391 207.178 69.0391C208.292 69.0391 209.17 69.4167 209.811 70.1719C210.456 70.9271 210.8 71.8385 210.842 72.9062ZM209.404 72.4844C209.342 71.8802 209.121 71.3594 208.74 70.9219C208.365 70.4792 207.824 70.2578 207.115 70.2578C206.423 70.2578 205.852 70.487 205.404 70.9453C204.956 71.4036 204.712 71.9193 204.67 72.4922L209.404 72.4844ZM227.905 73.6328C227.905 72.5182 227.728 71.6771 227.374 71.1094C227.02 70.5417 226.496 70.2578 225.803 70.2578C225.106 70.2578 224.577 70.5443 224.217 71.1172C223.858 71.6849 223.678 72.5234 223.678 73.6328C223.678 74.737 223.858 75.5755 224.217 76.1484C224.577 76.7214 225.106 77.0078 225.803 77.0078C226.496 77.0078 227.02 76.724 227.374 76.1562C227.728 75.5885 227.905 74.7474 227.905 73.6328ZM223.678 70.3672C223.908 69.9401 224.223 69.612 224.624 69.3828C225.03 69.1536 225.499 69.0391 226.03 69.0391C227.082 69.0391 227.91 69.4453 228.514 70.2578C229.119 71.0651 229.421 72.1797 229.421 73.6016C229.421 75.0443 229.116 76.1771 228.507 77C227.902 77.8177 227.072 78.2266 226.014 78.2266C225.494 78.2266 225.033 78.1146 224.632 77.8906C224.236 77.6615 223.918 77.3307 223.678 76.8984V78H222.241V65.8438H223.678V70.3672ZM231.577 74.6875V69.2656H233.015V74.6875C233.015 75.474 233.153 76.0521 233.429 76.4219C233.71 76.7917 234.142 76.9766 234.726 76.9766C235.403 76.9766 235.921 76.7396 236.28 76.2656C236.64 75.7865 236.819 75.1016 236.819 74.2109V69.2656H238.265V78H236.819V76.6875C236.564 77.1927 236.215 77.5755 235.773 77.8359C235.335 78.0964 234.822 78.2266 234.233 78.2266C233.338 78.2266 232.671 77.9349 232.233 77.3516C231.796 76.763 231.577 75.875 231.577 74.6875ZM241.843 69.2812H245.523V76.8828H248.374V78H241.234V76.8828H244.085V70.3984H241.843V69.2812ZM244.085 65.8828H245.523V67.6953H244.085V65.8828ZM254.312 74.8359C254.312 75.4818 254.429 75.9688 254.664 76.2969C254.903 76.625 255.255 76.7891 255.718 76.7891H257.398V78H255.578C254.718 78 254.052 77.7266 253.578 77.1797C253.109 76.6276 252.875 75.8464 252.875 74.8359V66.9219H250.57V65.7969H254.312V74.8359ZM264.719 70.3672V65.8438H266.156V78H264.719V76.8984C264.479 77.3307 264.159 77.6615 263.758 77.8906C263.362 78.1146 262.904 78.2266 262.383 78.2266C261.326 78.2266 260.492 77.8177 259.883 77C259.279 76.1771 258.977 75.0443 258.977 73.6016C258.977 72.1797 259.281 71.0651 259.891 70.2578C260.5 69.4453 261.331 69.0391 262.383 69.0391C262.909 69.0391 263.372 69.1536 263.773 69.3828C264.174 69.6068 264.49 69.9349 264.719 70.3672ZM260.492 73.6328C260.492 74.7474 260.669 75.5885 261.023 76.1562C261.378 76.724 261.901 77.0078 262.594 77.0078C263.286 77.0078 263.812 76.7214 264.172 76.1484C264.536 75.5755 264.719 74.737 264.719 73.6328C264.719 72.5234 264.536 71.6849 264.172 71.1172C263.812 70.5443 263.286 70.2578 262.594 70.2578C261.901 70.2578 261.378 70.5417 261.023 71.1094C260.669 71.6771 260.492 72.5182 260.492 73.6328ZM276.086 72.9062V73.6094H269.86V73.6562C269.818 74.849 270.045 75.7057 270.539 76.2266C271.039 76.7474 271.742 77.0078 272.649 77.0078C273.107 77.0078 273.586 76.9349 274.086 76.7891C274.586 76.6432 275.12 76.4219 275.688 76.125V77.5547C275.141 77.7786 274.612 77.9453 274.102 78.0547C273.597 78.1693 273.107 78.2266 272.633 78.2266C271.274 78.2266 270.211 77.8203 269.446 77.0078C268.68 76.1901 268.297 75.0651 268.297 73.6328C268.297 72.237 268.672 71.1224 269.422 70.2891C270.172 69.4557 271.172 69.0391 272.422 69.0391C273.537 69.0391 274.414 69.4167 275.055 70.1719C275.701 70.9271 276.045 71.8385 276.086 72.9062ZM274.649 72.4844C274.586 71.8802 274.365 71.3594 273.985 70.9219C273.61 70.4792 273.068 70.2578 272.36 70.2578C271.667 70.2578 271.097 70.487 270.649 70.9453C270.201 71.4036 269.956 71.9193 269.914 72.4922L274.649 72.4844ZM285.68 71.0547C285.373 70.8151 285.061 70.6406 284.743 70.5312C284.425 70.4219 284.076 70.3672 283.696 70.3672C282.8 70.3672 282.115 70.6484 281.641 71.2109C281.167 71.7734 280.93 72.5859 280.93 73.6484V78H279.485V69.25H280.93V70.9609C281.17 70.3411 281.537 69.8672 282.032 69.5391C282.532 69.2057 283.123 69.0391 283.805 69.0391C284.159 69.0391 284.49 69.0833 284.798 69.1719C285.105 69.2604 285.399 69.3984 285.68 69.5859V71.0547Z" fill="#98CD89"/>
<path d="M114.683 89.8281V94.6953H112.933V89.8281H114.683ZM121.136 100.898V105.328H119.691V93.25H121.136V94.3672C121.376 93.9349 121.693 93.6068 122.089 93.3828C122.49 93.1536 122.951 93.0391 123.472 93.0391C124.529 93.0391 125.357 93.4479 125.956 94.2656C126.56 95.0833 126.863 96.2161 126.863 97.6641C126.863 99.0859 126.56 100.203 125.956 101.016C125.352 101.823 124.524 102.227 123.472 102.227C122.941 102.227 122.474 102.115 122.073 101.891C121.678 101.661 121.365 101.331 121.136 100.898ZM125.355 97.6328C125.355 96.5182 125.178 95.6771 124.823 95.1094C124.474 94.5417 123.954 94.2578 123.261 94.2578C122.563 94.2578 122.034 94.5443 121.675 95.1172C121.316 95.6849 121.136 96.5234 121.136 97.6328C121.136 98.737 121.316 99.5755 121.675 100.148C122.034 100.721 122.563 101.008 123.261 101.008C123.954 101.008 124.474 100.724 124.823 100.156C125.178 99.5885 125.355 98.7474 125.355 97.6328ZM136.55 95.0547C136.243 94.8151 135.931 94.6406 135.613 94.5312C135.295 94.4219 134.946 94.3672 134.566 94.3672C133.67 94.3672 132.985 94.6484 132.511 95.2109C132.037 95.7734 131.8 96.5859 131.8 97.6484V102H130.355V93.25H131.8V94.9609C132.04 94.3411 132.407 93.8672 132.902 93.5391C133.402 93.2057 133.993 93.0391 134.675 93.0391C135.029 93.0391 135.36 93.0833 135.668 93.1719C135.975 93.2604 136.269 93.3984 136.55 93.5859V95.0547ZM141.66 94.2578C140.931 94.2578 140.379 94.5417 140.004 95.1094C139.629 95.6771 139.441 96.5182 139.441 97.6328C139.441 98.7422 139.629 99.5833 140.004 100.156C140.379 100.724 140.931 101.008 141.66 101.008C142.394 101.008 142.949 100.724 143.324 100.156C143.699 99.5833 143.887 98.7422 143.887 97.6328C143.887 96.5182 143.699 95.6771 143.324 95.1094C142.949 94.5417 142.394 94.2578 141.66 94.2578ZM141.66 93.0391C142.874 93.0391 143.801 93.4323 144.441 94.2188C145.087 95.0052 145.41 96.1432 145.41 97.6328C145.41 99.1276 145.09 100.268 144.449 101.055C143.808 101.836 142.879 102.227 141.66 102.227C140.446 102.227 139.519 101.836 138.879 101.055C138.238 100.268 137.918 99.1276 137.918 97.6328C137.918 96.1432 138.238 95.0052 138.879 94.2188C139.519 93.4323 140.446 93.0391 141.66 93.0391ZM152.871 94.3672V89.8438H154.309V102H152.871V100.898C152.632 101.331 152.311 101.661 151.91 101.891C151.514 102.115 151.056 102.227 150.535 102.227C149.478 102.227 148.645 101.818 148.035 101C147.431 100.177 147.129 99.0443 147.129 97.6016C147.129 96.1797 147.434 95.0651 148.043 94.2578C148.652 93.4453 149.483 93.0391 150.535 93.0391C151.061 93.0391 151.525 93.1536 151.926 93.3828C152.327 93.6068 152.642 93.9349 152.871 94.3672ZM148.645 97.6328C148.645 98.7474 148.822 99.5885 149.176 100.156C149.53 100.724 150.054 101.008 150.746 101.008C151.439 101.008 151.965 100.721 152.324 100.148C152.689 99.5755 152.871 98.737 152.871 97.6328C152.871 96.5234 152.689 95.6849 152.324 95.1172C151.965 94.5443 151.439 94.2578 150.746 94.2578C150.054 94.2578 149.53 94.5417 149.176 95.1094C148.822 95.6771 148.645 96.5182 148.645 97.6328ZM157.012 98.6875V93.2656H158.45V98.6875C158.45 99.474 158.588 100.052 158.864 100.422C159.145 100.792 159.577 100.977 160.161 100.977C160.838 100.977 161.356 100.74 161.715 100.266C162.075 99.7865 162.254 99.1016 162.254 98.2109V93.2656H163.7V102H162.254V100.688C161.999 101.193 161.65 101.576 161.208 101.836C160.77 102.096 160.257 102.227 159.668 102.227C158.773 102.227 158.106 101.935 157.668 101.352C157.231 100.763 157.012 99.875 157.012 98.6875ZM173.098 101.555C172.713 101.779 172.315 101.945 171.903 102.055C171.497 102.169 171.08 102.227 170.653 102.227C169.299 102.227 168.239 101.82 167.473 101.008C166.713 100.195 166.333 99.0703 166.333 97.6328C166.333 96.1953 166.713 95.0703 167.473 94.2578C168.239 93.4453 169.299 93.0391 170.653 93.0391C171.075 93.0391 171.486 93.0938 171.887 93.2031C172.289 93.3125 172.692 93.4818 173.098 93.7109V95.2188C172.718 94.8802 172.335 94.6354 171.95 94.4844C171.57 94.3333 171.137 94.2578 170.653 94.2578C169.752 94.2578 169.059 94.5495 168.575 95.1328C168.091 95.7161 167.848 96.5495 167.848 97.6328C167.848 98.7109 168.091 99.5443 168.575 100.133C169.065 100.716 169.757 101.008 170.653 101.008C171.153 101.008 171.601 100.932 171.997 100.781C172.393 100.625 172.76 100.385 173.098 100.062V101.555ZM178.927 90.7656V93.25H182.193V94.3672H178.927V99.1172C178.927 99.763 179.049 100.214 179.294 100.469C179.539 100.724 179.966 100.852 180.575 100.852H182.193V102H180.435C179.357 102 178.596 101.784 178.153 101.352C177.711 100.919 177.489 100.174 177.489 99.1172V94.3672H175.153V93.25H177.489V90.7656H178.927ZM185.919 93.2812H189.599V100.883H192.451V102H185.31V100.883H188.162V94.3984H185.919V93.2812ZM188.162 89.8828H189.599V91.6953H188.162V89.8828ZM197.584 94.2578C196.855 94.2578 196.303 94.5417 195.928 95.1094C195.553 95.6771 195.365 96.5182 195.365 97.6328C195.365 98.7422 195.553 99.5833 195.928 100.156C196.303 100.724 196.855 101.008 197.584 101.008C198.318 101.008 198.873 100.724 199.248 100.156C199.623 99.5833 199.81 98.7422 199.81 97.6328C199.81 96.5182 199.623 95.6771 199.248 95.1094C198.873 94.5417 198.318 94.2578 197.584 94.2578ZM197.584 93.0391C198.797 93.0391 199.724 93.4323 200.365 94.2188C201.011 95.0052 201.334 96.1432 201.334 97.6328C201.334 99.1276 201.013 100.268 200.373 101.055C199.732 101.836 198.803 102.227 197.584 102.227C196.37 102.227 195.443 101.836 194.803 101.055C194.162 100.268 193.842 99.1276 193.842 97.6328C193.842 96.1432 194.162 95.0052 194.803 94.2188C195.443 93.4323 196.37 93.0391 197.584 93.0391ZM210.303 96.5781V102H208.857V96.5781C208.857 95.7917 208.719 95.2135 208.443 94.8438C208.167 94.474 207.735 94.2891 207.147 94.2891C206.475 94.2891 205.956 94.5286 205.592 95.0078C205.232 95.4818 205.053 96.1641 205.053 97.0547V102H203.615V93.25H205.053V94.5625C205.308 94.0625 205.654 93.6849 206.092 93.4297C206.529 93.1693 207.048 93.0391 207.647 93.0391C208.537 93.0391 209.201 93.3333 209.639 93.9219C210.081 94.5052 210.303 95.3906 210.303 96.5781ZM212.209 96.3438H220.491V97.6641H212.209V96.3438ZM228.335 93.5547V94.9609C227.923 94.7214 227.509 94.5417 227.092 94.4219C226.676 94.3021 226.251 94.2422 225.819 94.2422C225.168 94.2422 224.681 94.349 224.358 94.5625C224.04 94.7708 223.882 95.0911 223.882 95.5234C223.882 95.9141 224.001 96.2057 224.241 96.3984C224.481 96.5911 225.077 96.7786 226.03 96.9609L226.608 97.0703C227.322 97.2057 227.861 97.4766 228.225 97.8828C228.595 98.2891 228.78 98.8177 228.78 99.4688C228.78 100.333 228.473 101.01 227.858 101.5C227.244 101.984 226.389 102.227 225.296 102.227C224.863 102.227 224.41 102.18 223.936 102.086C223.462 101.997 222.949 101.862 222.397 101.68V100.195C222.934 100.471 223.447 100.68 223.936 100.82C224.426 100.956 224.889 101.023 225.327 101.023C225.962 101.023 226.454 100.896 226.803 100.641C227.152 100.38 227.327 100.018 227.327 99.5547C227.327 98.888 226.689 98.4271 225.413 98.1719L225.35 98.1562L224.811 98.0469C223.983 97.8854 223.379 97.6146 222.999 97.2344C222.619 96.849 222.428 96.3255 222.428 95.6641C222.428 94.8255 222.712 94.1797 223.28 93.7266C223.848 93.2682 224.658 93.0391 225.71 93.0391C226.178 93.0391 226.629 93.0833 227.061 93.1719C227.494 93.2552 227.918 93.3828 228.335 93.5547ZM235.538 97.6016H235.062C234.223 97.6016 233.59 97.75 233.163 98.0469C232.741 98.3385 232.53 98.776 232.53 99.3594C232.53 99.8854 232.689 100.294 233.007 100.586C233.325 100.878 233.765 101.023 234.327 101.023C235.119 101.023 235.741 100.75 236.194 100.203C236.648 99.651 236.877 98.8906 236.882 97.9219V97.6016H235.538ZM238.327 97.0078V102H236.882V100.703C236.575 101.224 236.187 101.609 235.718 101.859C235.254 102.104 234.689 102.227 234.023 102.227C233.132 102.227 232.421 101.977 231.89 101.477C231.358 100.971 231.093 100.297 231.093 99.4531C231.093 98.4792 231.418 97.7396 232.069 97.2344C232.726 96.7292 233.687 96.4766 234.952 96.4766H236.882V96.25C236.877 95.5521 236.7 95.0469 236.351 94.7344C236.002 94.4167 235.444 94.2578 234.679 94.2578C234.189 94.2578 233.694 94.3281 233.194 94.4688C232.694 94.6094 232.207 94.8151 231.733 95.0859V93.6484C232.265 93.4453 232.773 93.2943 233.257 93.1953C233.746 93.0911 234.22 93.0391 234.679 93.0391C235.403 93.0391 236.02 93.1458 236.53 93.3594C237.046 93.5729 237.463 93.8932 237.78 94.3203C237.978 94.5807 238.119 94.9036 238.202 95.2891C238.286 95.6693 238.327 96.2422 238.327 97.0078ZM247.585 96.5781V102H246.14V96.5781C246.14 95.7917 246.002 95.2135 245.726 94.8438C245.45 94.474 245.018 94.2891 244.429 94.2891C243.757 94.2891 243.239 94.5286 242.874 95.0078C242.515 95.4818 242.335 96.1641 242.335 97.0547V102H240.898V93.25H242.335V94.5625C242.591 94.0625 242.937 93.6849 243.374 93.4297C243.812 93.1693 244.33 93.0391 244.929 93.0391C245.82 93.0391 246.484 93.3333 246.921 93.9219C247.364 94.5052 247.585 95.3906 247.585 96.5781ZM255.398 94.3672V89.8438H256.836V102H255.398V100.898C255.159 101.331 254.838 101.661 254.437 101.891C254.041 102.115 253.583 102.227 253.062 102.227C252.005 102.227 251.172 101.818 250.562 101C249.958 100.177 249.656 99.0443 249.656 97.6016C249.656 96.1797 249.961 95.0651 250.57 94.2578C251.179 93.4453 252.01 93.0391 253.062 93.0391C253.588 93.0391 254.052 93.1536 254.453 93.3828C254.854 93.6068 255.169 93.9349 255.398 94.3672ZM251.172 97.6328C251.172 98.7474 251.349 99.5885 251.703 100.156C252.057 100.724 252.58 101.008 253.273 101.008C253.966 101.008 254.492 100.721 254.851 100.148C255.216 99.5755 255.398 98.737 255.398 97.6328C255.398 96.5234 255.216 95.6849 254.851 95.1172C254.492 94.5443 253.966 94.2578 253.273 94.2578C252.58 94.2578 252.057 94.5417 251.703 95.1094C251.349 95.6771 251.172 96.5182 251.172 97.6328ZM265.188 97.6328C265.188 96.5182 265.01 95.6771 264.656 95.1094C264.302 94.5417 263.779 94.2578 263.086 94.2578C262.388 94.2578 261.859 94.5443 261.5 95.1172C261.141 95.6849 260.961 96.5234 260.961 97.6328C260.961 98.737 261.141 99.5755 261.5 100.148C261.859 100.721 262.388 101.008 263.086 101.008C263.779 101.008 264.302 100.724 264.656 100.156C265.01 99.5885 265.188 98.7474 265.188 97.6328ZM260.961 94.3672C261.19 93.9401 261.505 93.612 261.906 93.3828C262.312 93.1536 262.781 93.0391 263.312 93.0391C264.365 93.0391 265.193 93.4453 265.797 94.2578C266.401 95.0651 266.703 96.1797 266.703 97.6016C266.703 99.0443 266.398 100.177 265.789 101C265.185 101.818 264.354 102.227 263.297 102.227C262.776 102.227 262.315 102.115 261.914 101.891C261.518 101.661 261.201 101.331 260.961 100.898V102H259.523V89.8438H260.961V94.3672ZM272.149 94.2578C271.42 94.2578 270.867 94.5417 270.492 95.1094C270.117 95.6771 269.93 96.5182 269.93 97.6328C269.93 98.7422 270.117 99.5833 270.492 100.156C270.867 100.724 271.42 101.008 272.149 101.008C272.883 101.008 273.438 100.724 273.813 100.156C274.188 99.5833 274.375 98.7422 274.375 97.6328C274.375 96.5182 274.188 95.6771 273.813 95.1094C273.438 94.5417 272.883 94.2578 272.149 94.2578ZM272.149 93.0391C273.362 93.0391 274.289 93.4323 274.93 94.2188C275.576 95.0052 275.899 96.1432 275.899 97.6328C275.899 99.1276 275.578 100.268 274.938 101.055C274.297 101.836 273.367 102.227 272.149 102.227C270.935 102.227 270.008 101.836 269.367 101.055C268.727 100.268 268.407 99.1276 268.407 97.6328C268.407 96.1432 268.727 95.0052 269.367 94.2188C270.008 93.4323 270.935 93.0391 272.149 93.0391ZM285.391 93.25L282.258 97.4375L285.696 102H284.032L281.469 98.4922L278.915 102H277.251L280.688 97.4375L277.555 93.25H279.149L281.469 96.4141L283.774 93.25H285.391ZM291.774 89.8281V94.6953H290.024V89.8281H291.774Z" fill="#B4F1A3"/>
<path d="M153.113 114.336H154.598L148.457 127.484H146.965L153.113 114.336ZM162.434 114.336H163.918L157.778 127.484H156.286L162.434 114.336ZM165.098 114.336H166.778L169.622 119.484L172.458 114.336H174.153L170.411 120.766V126H168.825V120.766L165.098 114.336ZM178.943 118.258C178.213 118.258 177.661 118.542 177.286 119.109C176.911 119.677 176.724 120.518 176.724 121.633C176.724 122.742 176.911 123.583 177.286 124.156C177.661 124.724 178.213 125.008 178.943 125.008C179.677 125.008 180.232 124.724 180.607 124.156C180.982 123.583 181.169 122.742 181.169 121.633C181.169 120.518 180.982 119.677 180.607 119.109C180.232 118.542 179.677 118.258 178.943 118.258ZM178.943 117.039C180.156 117.039 181.083 117.432 181.724 118.219C182.37 119.005 182.693 120.143 182.693 121.633C182.693 123.128 182.372 124.268 181.732 125.055C181.091 125.836 180.161 126.227 178.943 126.227C177.729 126.227 176.802 125.836 176.161 125.055C175.521 124.268 175.2 123.128 175.2 121.633C175.2 120.143 175.521 119.005 176.161 118.219C176.802 117.432 177.729 117.039 178.943 117.039ZM184.974 122.688V117.266H186.412V122.688C186.412 123.474 186.55 124.052 186.826 124.422C187.107 124.792 187.539 124.977 188.122 124.977C188.8 124.977 189.318 124.74 189.677 124.266C190.037 123.786 190.216 123.102 190.216 122.211V117.266H191.662V126H190.216V124.688C189.961 125.193 189.612 125.576 189.169 125.836C188.732 126.096 188.219 126.227 187.63 126.227C186.734 126.227 186.068 125.935 185.63 125.352C185.193 124.763 184.974 123.875 184.974 122.688ZM201.795 119.055C201.487 118.815 201.175 118.641 200.857 118.531C200.539 118.422 200.191 118.367 199.81 118.367C198.914 118.367 198.23 118.648 197.756 119.211C197.282 119.773 197.045 120.586 197.045 121.648V126H195.599V117.25H197.045V118.961C197.284 118.341 197.651 117.867 198.146 117.539C198.646 117.206 199.237 117.039 199.92 117.039C200.274 117.039 200.605 117.083 200.912 117.172C201.219 117.26 201.513 117.398 201.795 117.586V119.055ZM213.256 113.844H214.741V120.883L218.514 117.25H220.264L216.819 120.547L220.803 126H219.045L215.811 121.484L214.741 122.492V126H213.256V113.844ZM229.483 120.906V121.609H223.257V121.656C223.215 122.849 223.441 123.706 223.936 124.227C224.436 124.747 225.139 125.008 226.046 125.008C226.504 125.008 226.983 124.935 227.483 124.789C227.983 124.643 228.517 124.422 229.085 124.125V125.555C228.538 125.779 228.009 125.945 227.499 126.055C226.994 126.169 226.504 126.227 226.03 126.227C224.671 126.227 223.608 125.82 222.842 125.008C222.077 124.19 221.694 123.065 221.694 121.633C221.694 120.237 222.069 119.122 222.819 118.289C223.569 117.456 224.569 117.039 225.819 117.039C226.934 117.039 227.811 117.417 228.452 118.172C229.098 118.927 229.441 119.839 229.483 120.906ZM228.046 120.484C227.983 119.88 227.762 119.359 227.382 118.922C227.007 118.479 226.465 118.258 225.757 118.258C225.064 118.258 224.494 118.487 224.046 118.945C223.598 119.404 223.353 119.919 223.311 120.492L228.046 120.484ZM236.757 123.188C236.517 123.797 236.213 124.599 235.843 125.594C235.327 126.969 234.981 127.807 234.804 128.109C234.564 128.516 234.265 128.82 233.905 129.023C233.546 129.227 233.127 129.328 232.648 129.328H231.491V128.125H232.343C232.765 128.125 233.095 128.003 233.335 127.758C233.575 127.513 233.879 126.88 234.249 125.859L230.866 117.25H232.39L234.983 124.094L237.538 117.25H239.062L236.757 123.188ZM257 113.844V115.039H255.367C254.851 115.039 254.492 115.146 254.289 115.359C254.091 115.568 253.992 115.94 253.992 116.477V117.25H257V118.367H253.992V126H252.554V118.367H250.218V117.25H252.554V116.641C252.554 115.682 252.773 114.977 253.211 114.523C253.653 114.07 254.341 113.844 255.273 113.844H257ZM267.039 119.055C266.732 118.815 266.419 118.641 266.102 118.531C265.784 118.422 265.435 118.367 265.055 118.367C264.159 118.367 263.474 118.648 263 119.211C262.526 119.773 262.289 120.586 262.289 121.648V126H260.844V117.25H262.289V118.961C262.529 118.341 262.896 117.867 263.391 117.539C263.891 117.206 264.482 117.039 265.164 117.039C265.518 117.039 265.849 117.083 266.156 117.172C266.464 117.26 266.758 117.398 267.039 117.586V119.055ZM272.149 118.258C271.42 118.258 270.867 118.542 270.492 119.109C270.117 119.677 269.93 120.518 269.93 121.633C269.93 122.742 270.117 123.583 270.492 124.156C270.867 124.724 271.42 125.008 272.149 125.008C272.883 125.008 273.438 124.724 273.813 124.156C274.188 123.583 274.375 122.742 274.375 121.633C274.375 120.518 274.188 119.677 273.813 119.109C273.438 118.542 272.883 118.258 272.149 118.258ZM272.149 117.039C273.362 117.039 274.289 117.432 274.93 118.219C275.576 119.005 275.899 120.143 275.899 121.633C275.899 123.128 275.578 124.268 274.938 125.055C274.297 125.836 273.367 126.227 272.149 126.227C270.935 126.227 270.008 125.836 269.367 125.055C268.727 124.268 268.407 123.128 268.407 121.633C268.407 120.143 268.727 119.005 269.367 118.219C270.008 117.432 270.935 117.039 272.149 117.039ZM281.938 118.141C282.115 117.766 282.339 117.49 282.61 117.312C282.886 117.13 283.217 117.039 283.602 117.039C284.305 117.039 284.8 117.312 285.087 117.859C285.378 118.401 285.524 119.424 285.524 120.93V126H284.212V120.992C284.212 119.758 284.141 118.992 284.001 118.695C283.865 118.393 283.615 118.242 283.251 118.242C282.834 118.242 282.548 118.404 282.391 118.727C282.24 119.044 282.165 119.799 282.165 120.992V126H280.852V120.992C280.852 119.742 280.777 118.971 280.626 118.68C280.48 118.388 280.214 118.242 279.829 118.242C279.449 118.242 279.183 118.404 279.032 118.727C278.886 119.044 278.813 119.799 278.813 120.992V126H277.508V117.25H278.813V118C278.985 117.688 279.199 117.451 279.454 117.289C279.714 117.122 280.008 117.039 280.337 117.039C280.732 117.039 281.061 117.13 281.321 117.312C281.587 117.495 281.792 117.771 281.938 118.141ZM30.2812 142.141C30.4583 141.766 30.6823 141.49 30.9531 141.312C31.2292 141.13 31.5599 141.039 31.9453 141.039C32.6484 141.039 33.1432 141.312 33.4297 141.859C33.7214 142.401 33.8672 143.424 33.8672 144.93V150H32.5547V144.992C32.5547 143.758 32.4844 142.992 32.3438 142.695C32.2083 142.393 31.9583 142.242 31.5938 142.242C31.1771 142.242 30.8906 142.404 30.7344 142.727C30.5833 143.044 30.5078 143.799 30.5078 144.992V150H29.1953V144.992C29.1953 143.742 29.1198 142.971 28.9688 142.68C28.8229 142.388 28.5573 142.242 28.1719 142.242C27.7917 142.242 27.526 142.404 27.375 142.727C27.2292 143.044 27.1562 143.799 27.1562 144.992V150H25.8516V141.25H27.1562V142C27.3281 141.688 27.5417 141.451 27.7969 141.289C28.0573 141.122 28.3516 141.039 28.6797 141.039C29.0755 141.039 29.4036 141.13 29.6641 141.312C29.9297 141.495 30.1354 141.771 30.2812 142.141ZM41.0238 147.188C40.7842 147.797 40.4795 148.599 40.1097 149.594C39.5941 150.969 39.2477 151.807 39.0706 152.109C38.831 152.516 38.5316 152.82 38.1722 153.023C37.8128 153.227 37.3935 153.328 36.9144 153.328H35.7581V152.125H36.6097C37.0316 152.125 37.3623 152.003 37.6019 151.758C37.8415 151.513 38.1461 150.88 38.5159 149.859L35.1331 141.25H36.6566L39.2503 148.094L41.805 141.25H43.3284L41.0238 147.188ZM51.9303 149.555C51.5449 149.779 51.1465 149.945 50.735 150.055C50.3288 150.169 49.9121 150.227 49.485 150.227C48.1308 150.227 47.0709 149.82 46.3053 149.008C45.5449 148.195 45.1647 147.07 45.1647 145.633C45.1647 144.195 45.5449 143.07 46.3053 142.258C47.0709 141.445 48.1308 141.039 49.485 141.039C49.9069 141.039 50.3183 141.094 50.7194 141.203C51.1204 141.312 51.5241 141.482 51.9303 141.711V143.219C51.5501 142.88 51.1673 142.635 50.7819 142.484C50.4017 142.333 49.9694 142.258 49.485 142.258C48.584 142.258 47.8913 142.549 47.4069 143.133C46.9225 143.716 46.6803 144.549 46.6803 145.633C46.6803 146.711 46.9225 147.544 47.4069 148.133C47.8965 148.716 48.5892 149.008 49.485 149.008C49.985 149.008 50.4329 148.932 50.8288 148.781C51.2246 148.625 51.5918 148.385 51.9303 148.062V149.555ZM57.7744 142.258C57.0452 142.258 56.4931 142.542 56.1181 143.109C55.7431 143.677 55.5556 144.518 55.5556 145.633C55.5556 146.742 55.7431 147.583 56.1181 148.156C56.4931 148.724 57.0452 149.008 57.7744 149.008C58.5088 149.008 59.0634 148.724 59.4384 148.156C59.8134 147.583 60.0009 146.742 60.0009 145.633C60.0009 144.518 59.8134 143.677 59.4384 143.109C59.0634 142.542 58.5088 142.258 57.7744 142.258ZM57.7744 141.039C58.9879 141.039 59.915 141.432 60.5556 142.219C61.2015 143.005 61.5244 144.143 61.5244 145.633C61.5244 147.128 61.2041 148.268 60.5634 149.055C59.9228 149.836 58.9931 150.227 57.7744 150.227C56.5608 150.227 55.6338 149.836 54.9931 149.055C54.3525 148.268 54.0322 147.128 54.0322 145.633C54.0322 144.143 54.3525 143.005 54.9931 142.219C55.6338 141.432 56.5608 141.039 57.7744 141.039ZM63.0638 141.25H64.5559L67.095 148.594L69.6419 141.25H71.1341L68.0247 150H66.1731L63.0638 141.25ZM80.3531 144.906V145.609H74.1266V145.656C74.0849 146.849 74.3115 147.706 74.8063 148.227C75.3063 148.747 76.0094 149.008 76.9156 149.008C77.374 149.008 77.8531 148.935 78.3531 148.789C78.8531 148.643 79.387 148.422 79.9547 148.125V149.555C79.4078 149.779 78.8792 149.945 78.3688 150.055C77.8635 150.169 77.374 150.227 76.9 150.227C75.5406 150.227 74.4781 149.82 73.7125 149.008C72.9469 148.19 72.5641 147.065 72.5641 145.633C72.5641 144.237 72.9391 143.122 73.6891 142.289C74.4391 141.456 75.4391 141.039 76.6891 141.039C77.8036 141.039 78.6813 141.417 79.3219 142.172C79.9677 142.927 80.3115 143.839 80.3531 144.906ZM78.9156 144.484C78.8531 143.88 78.6318 143.359 78.2516 142.922C77.8766 142.479 77.3349 142.258 76.6266 142.258C75.9339 142.258 75.3635 142.487 74.9156 142.945C74.4677 143.404 74.2229 143.919 74.1813 144.492L78.9156 144.484ZM89.9472 143.055C89.6399 142.815 89.3274 142.641 89.0097 142.531C88.692 142.422 88.343 142.367 87.9628 142.367C87.067 142.367 86.3821 142.648 85.9081 143.211C85.4342 143.773 85.1972 144.586 85.1972 145.648V150H83.7519V141.25H85.1972V142.961C85.4368 142.341 85.804 141.867 86.2988 141.539C86.7988 141.206 87.3899 141.039 88.0722 141.039C88.4264 141.039 88.7571 141.083 89.0644 141.172C89.3717 141.26 89.6659 141.398 89.9472 141.586V143.055ZM93.2834 146.844H96.0334V150H93.2834V146.844ZM105.049 145.602H104.573C103.734 145.602 103.101 145.75 102.674 146.047C102.253 146.339 102.042 146.776 102.042 147.359C102.042 147.885 102.2 148.294 102.518 148.586C102.836 148.878 103.276 149.023 103.838 149.023C104.63 149.023 105.253 148.75 105.706 148.203C106.159 147.651 106.388 146.891 106.393 145.922V145.602H105.049ZM107.838 145.008V150H106.393V148.703C106.086 149.224 105.698 149.609 105.229 149.859C104.766 150.104 104.2 150.227 103.534 150.227C102.643 150.227 101.932 149.977 101.401 149.477C100.87 148.971 100.604 148.297 100.604 147.453C100.604 146.479 100.93 145.74 101.581 145.234C102.237 144.729 103.198 144.477 104.463 144.477H106.393V144.25C106.388 143.552 106.211 143.047 105.862 142.734C105.513 142.417 104.956 142.258 104.19 142.258C103.7 142.258 103.206 142.328 102.706 142.469C102.206 142.609 101.719 142.815 101.245 143.086V141.648C101.776 141.445 102.284 141.294 102.768 141.195C103.258 141.091 103.732 141.039 104.19 141.039C104.914 141.039 105.531 141.146 106.042 141.359C106.557 141.573 106.974 141.893 107.292 142.32C107.489 142.581 107.63 142.904 107.713 143.289C107.797 143.669 107.838 144.242 107.838 145.008ZM111.354 141.281H115.034V148.883H117.886V150H110.745V148.883H113.597V142.398H111.354V141.281ZM113.597 137.883H115.034V139.695H113.597V137.883ZM124.909 142.367V137.844H126.347V150H124.909V148.898C124.67 149.331 124.349 149.661 123.948 149.891C123.553 150.115 123.094 150.227 122.573 150.227C121.516 150.227 120.683 149.818 120.073 149C119.469 148.177 119.167 147.044 119.167 145.602C119.167 144.18 119.472 143.065 120.081 142.258C120.691 141.445 121.521 141.039 122.573 141.039C123.099 141.039 123.563 141.154 123.964 141.383C124.365 141.607 124.68 141.935 124.909 142.367ZM120.683 145.633C120.683 146.747 120.86 147.589 121.214 148.156C121.568 148.724 122.092 149.008 122.784 149.008C123.477 149.008 124.003 148.721 124.363 148.148C124.727 147.576 124.909 146.737 124.909 145.633C124.909 144.523 124.727 143.685 124.363 143.117C124.003 142.544 123.477 142.258 122.784 142.258C122.092 142.258 121.568 142.542 121.214 143.109C120.86 143.677 120.683 144.518 120.683 145.633ZM133.011 145.602H132.535C131.696 145.602 131.063 145.75 130.636 146.047C130.214 146.339 130.003 146.776 130.003 147.359C130.003 147.885 130.162 148.294 130.48 148.586C130.798 148.878 131.238 149.023 131.8 149.023C132.592 149.023 133.214 148.75 133.668 148.203C134.121 147.651 134.35 146.891 134.355 145.922V145.602H133.011ZM135.8 145.008V150H134.355V148.703C134.048 149.224 133.66 149.609 133.191 149.859C132.727 150.104 132.162 150.227 131.496 150.227C130.605 150.227 129.894 149.977 129.363 149.477C128.832 148.971 128.566 148.297 128.566 147.453C128.566 146.479 128.891 145.74 129.543 145.234C130.199 144.729 131.16 144.477 132.425 144.477H134.355V144.25C134.35 143.552 134.173 143.047 133.824 142.734C133.475 142.417 132.918 142.258 132.152 142.258C131.662 142.258 131.168 142.328 130.668 142.469C130.168 142.609 129.681 142.815 129.207 143.086V141.648C129.738 141.445 130.246 141.294 130.73 141.195C131.22 141.091 131.694 141.039 132.152 141.039C132.876 141.039 133.493 141.146 134.003 141.359C134.519 141.573 134.936 141.893 135.253 142.32C135.451 142.581 135.592 142.904 135.675 143.289C135.759 143.669 135.8 144.242 135.8 145.008ZM144.449 141.555V142.961C144.038 142.721 143.624 142.542 143.207 142.422C142.79 142.302 142.366 142.242 141.933 142.242C141.282 142.242 140.795 142.349 140.473 142.562C140.155 142.771 139.996 143.091 139.996 143.523C139.996 143.914 140.116 144.206 140.355 144.398C140.595 144.591 141.191 144.779 142.144 144.961L142.723 145.07C143.436 145.206 143.975 145.477 144.34 145.883C144.709 146.289 144.894 146.818 144.894 147.469C144.894 148.333 144.587 149.01 143.973 149.5C143.358 149.984 142.504 150.227 141.41 150.227C140.978 150.227 140.525 150.18 140.051 150.086C139.577 149.997 139.064 149.862 138.512 149.68V148.195C139.048 148.471 139.561 148.68 140.051 148.82C140.54 148.956 141.004 149.023 141.441 149.023C142.077 149.023 142.569 148.896 142.918 148.641C143.267 148.38 143.441 148.018 143.441 147.555C143.441 146.888 142.803 146.427 141.527 146.172L141.465 146.156L140.926 146.047C140.098 145.885 139.493 145.615 139.113 145.234C138.733 144.849 138.543 144.326 138.543 143.664C138.543 142.826 138.827 142.18 139.394 141.727C139.962 141.268 140.772 141.039 141.824 141.039C142.293 141.039 142.743 141.083 143.176 141.172C143.608 141.255 144.032 141.383 144.449 141.555ZM154.379 144.578V150H152.934V144.578C152.934 143.792 152.796 143.214 152.52 142.844C152.244 142.474 151.811 142.289 151.223 142.289C150.551 142.289 150.033 142.529 149.668 143.008C149.309 143.482 149.129 144.164 149.129 145.055V150H147.692V137.844H149.129V142.562C149.384 142.062 149.731 141.685 150.168 141.43C150.606 141.169 151.124 141.039 151.723 141.039C152.613 141.039 153.277 141.333 153.715 141.922C154.158 142.505 154.379 143.391 154.379 144.578ZM162.661 145.633C162.661 144.518 162.484 143.677 162.129 143.109C161.775 142.542 161.252 142.258 160.559 142.258C159.861 142.258 159.333 142.544 158.973 143.117C158.614 143.685 158.434 144.523 158.434 145.633C158.434 146.737 158.614 147.576 158.973 148.148C159.333 148.721 159.861 149.008 160.559 149.008C161.252 149.008 161.775 148.724 162.129 148.156C162.484 147.589 162.661 146.747 162.661 145.633ZM158.434 142.367C158.663 141.94 158.978 141.612 159.379 141.383C159.786 141.154 160.254 141.039 160.786 141.039C161.838 141.039 162.666 141.445 163.27 142.258C163.874 143.065 164.176 144.18 164.176 145.602C164.176 147.044 163.872 148.177 163.262 149C162.658 149.818 161.827 150.227 160.77 150.227C160.249 150.227 159.788 150.115 159.387 149.891C158.991 149.661 158.674 149.331 158.434 148.898V150H156.997V137.844H158.434V142.367ZM169.622 142.258C168.893 142.258 168.341 142.542 167.966 143.109C167.591 143.677 167.403 144.518 167.403 145.633C167.403 146.742 167.591 147.583 167.966 148.156C168.341 148.724 168.893 149.008 169.622 149.008C170.356 149.008 170.911 148.724 171.286 148.156C171.661 147.583 171.848 146.742 171.848 145.633C171.848 144.518 171.661 143.677 171.286 143.109C170.911 142.542 170.356 142.258 169.622 142.258ZM169.622 141.039C170.835 141.039 171.762 141.432 172.403 142.219C173.049 143.005 173.372 144.143 173.372 145.633C173.372 147.128 173.052 148.268 172.411 149.055C171.77 149.836 170.841 150.227 169.622 150.227C168.408 150.227 167.481 149.836 166.841 149.055C166.2 148.268 165.88 147.128 165.88 145.633C165.88 144.143 166.2 143.005 166.841 142.219C167.481 141.432 168.408 141.039 169.622 141.039ZM179.614 145.602H179.138C178.299 145.602 177.666 145.75 177.239 146.047C176.818 146.339 176.607 146.776 176.607 147.359C176.607 147.885 176.765 148.294 177.083 148.586C177.401 148.878 177.841 149.023 178.403 149.023C179.195 149.023 179.818 148.75 180.271 148.203C180.724 147.651 180.953 146.891 180.958 145.922V145.602H179.614ZM182.403 145.008V150H180.958V148.703C180.651 149.224 180.263 149.609 179.794 149.859C179.331 150.104 178.765 150.227 178.099 150.227C177.208 150.227 176.497 149.977 175.966 149.477C175.435 148.971 175.169 148.297 175.169 147.453C175.169 146.479 175.495 145.74 176.146 145.234C176.802 144.729 177.763 144.477 179.028 144.477H180.958V144.25C180.953 143.552 180.776 143.047 180.427 142.734C180.078 142.417 179.521 142.258 178.755 142.258C178.265 142.258 177.771 142.328 177.271 142.469C176.771 142.609 176.284 142.815 175.81 143.086V141.648C176.341 141.445 176.849 141.294 177.333 141.195C177.823 141.091 178.297 141.039 178.755 141.039C179.479 141.039 180.096 141.146 180.607 141.359C181.122 141.573 181.539 141.893 181.857 142.32C182.054 142.581 182.195 142.904 182.278 143.289C182.362 143.669 182.403 144.242 182.403 145.008ZM192.474 143.055C192.167 142.815 191.854 142.641 191.537 142.531C191.219 142.422 190.87 142.367 190.49 142.367C189.594 142.367 188.909 142.648 188.435 143.211C187.961 143.773 187.724 144.586 187.724 145.648V150H186.279V141.25H187.724V142.961C187.964 142.341 188.331 141.867 188.826 141.539C189.326 141.206 189.917 141.039 190.599 141.039C190.953 141.039 191.284 141.083 191.591 141.172C191.899 141.26 192.193 141.398 192.474 141.586V143.055ZM199.474 142.367V137.844H200.912V150H199.474V148.898C199.235 149.331 198.914 149.661 198.513 149.891C198.118 150.115 197.659 150.227 197.138 150.227C196.081 150.227 195.248 149.818 194.638 149C194.034 148.177 193.732 147.044 193.732 145.602C193.732 144.18 194.037 143.065 194.646 142.258C195.256 141.445 196.086 141.039 197.138 141.039C197.664 141.039 198.128 141.154 198.529 141.383C198.93 141.607 199.245 141.935 199.474 142.367ZM195.248 145.633C195.248 146.747 195.425 147.589 195.779 148.156C196.133 148.724 196.657 149.008 197.349 149.008C198.042 149.008 198.568 148.721 198.928 148.148C199.292 147.576 199.474 146.737 199.474 145.633C199.474 144.523 199.292 143.685 198.928 143.117C198.568 142.544 198.042 142.258 197.349 142.258C196.657 142.258 196.133 142.542 195.779 143.109C195.425 143.677 195.248 144.518 195.248 145.633ZM171.755 162.336H173.239L167.098 175.484H165.606L171.755 162.336ZM181.075 162.336H182.56L176.419 175.484H174.927L181.075 162.336ZM183.74 162.336H185.419L188.263 167.484L191.099 162.336H192.794L189.052 168.766V174H187.466V168.766L183.74 162.336ZM197.584 166.258C196.855 166.258 196.303 166.542 195.928 167.109C195.553 167.677 195.365 168.518 195.365 169.633C195.365 170.742 195.553 171.583 195.928 172.156C196.303 172.724 196.855 173.008 197.584 173.008C198.318 173.008 198.873 172.724 199.248 172.156C199.623 171.583 199.81 170.742 199.81 169.633C199.81 168.518 199.623 167.677 199.248 167.109C198.873 166.542 198.318 166.258 197.584 166.258ZM197.584 165.039C198.797 165.039 199.724 165.432 200.365 166.219C201.011 167.005 201.334 168.143 201.334 169.633C201.334 171.128 201.013 172.268 200.373 173.055C199.732 173.836 198.803 174.227 197.584 174.227C196.37 174.227 195.443 173.836 194.803 173.055C194.162 172.268 193.842 171.128 193.842 169.633C193.842 168.143 194.162 167.005 194.803 166.219C195.443 165.432 196.37 165.039 197.584 165.039ZM203.615 170.688V165.266H205.053V170.688C205.053 171.474 205.191 172.052 205.467 172.422C205.748 172.792 206.18 172.977 206.764 172.977C207.441 172.977 207.959 172.74 208.318 172.266C208.678 171.786 208.857 171.102 208.857 170.211V165.266H210.303V174H208.857V172.688C208.602 173.193 208.253 173.576 207.811 173.836C207.373 174.096 206.86 174.227 206.272 174.227C205.376 174.227 204.709 173.935 204.272 173.352C203.834 172.763 203.615 171.875 203.615 170.688ZM220.436 167.055C220.129 166.815 219.816 166.641 219.498 166.531C219.181 166.422 218.832 166.367 218.452 166.367C217.556 166.367 216.871 166.648 216.397 167.211C215.923 167.773 215.686 168.586 215.686 169.648V174H214.241V165.25H215.686V166.961C215.926 166.341 216.293 165.867 216.788 165.539C217.288 165.206 217.879 165.039 218.561 165.039C218.915 165.039 219.246 165.083 219.553 165.172C219.86 165.26 220.155 165.398 220.436 165.586V167.055ZM234.851 162.766V165.25H238.116V166.367H234.851V171.117C234.851 171.763 234.973 172.214 235.218 172.469C235.463 172.724 235.89 172.852 236.499 172.852H238.116V174H236.358C235.28 174 234.52 173.784 234.077 173.352C233.634 172.919 233.413 172.174 233.413 171.117V166.367H231.077V165.25H233.413V162.766H234.851ZM244.187 166.258C243.458 166.258 242.906 166.542 242.531 167.109C242.156 167.677 241.968 168.518 241.968 169.633C241.968 170.742 242.156 171.583 242.531 172.156C242.906 172.724 243.458 173.008 244.187 173.008C244.921 173.008 245.476 172.724 245.851 172.156C246.226 171.583 246.413 170.742 246.413 169.633C246.413 168.518 246.226 167.677 245.851 167.109C245.476 166.542 244.921 166.258 244.187 166.258ZM244.187 165.039C245.4 165.039 246.327 165.432 246.968 166.219C247.614 167.005 247.937 168.143 247.937 169.633C247.937 171.128 247.617 172.268 246.976 173.055C246.335 173.836 245.406 174.227 244.187 174.227C242.973 174.227 242.046 173.836 241.406 173.055C240.765 172.268 240.445 171.128 240.445 169.633C240.445 168.143 240.765 167.005 241.406 166.219C242.046 165.432 242.973 165.039 244.187 165.039ZM250.539 161.844H252.023V168.883L255.797 165.25H257.547L254.101 168.547L258.086 174H256.328L253.093 169.484L252.023 170.492V174H250.539V161.844ZM266.766 168.906V169.609H260.539V169.656C260.497 170.849 260.724 171.706 261.219 172.227C261.719 172.747 262.422 173.008 263.328 173.008C263.786 173.008 264.266 172.935 264.766 172.789C265.266 172.643 265.799 172.422 266.367 172.125V173.555C265.82 173.779 265.292 173.945 264.781 174.055C264.276 174.169 263.786 174.227 263.312 174.227C261.953 174.227 260.891 173.82 260.125 173.008C259.359 172.19 258.977 171.065 258.977 169.633C258.977 168.237 259.352 167.122 260.102 166.289C260.852 165.456 261.852 165.039 263.102 165.039C264.216 165.039 265.094 165.417 265.734 166.172C266.38 166.927 266.724 167.839 266.766 168.906ZM265.328 168.484C265.266 167.88 265.044 167.359 264.664 166.922C264.289 166.479 263.747 166.258 263.039 166.258C262.346 166.258 261.776 166.487 261.328 166.945C260.88 167.404 260.635 167.919 260.594 168.492L265.328 168.484ZM275.547 168.578V174H274.102V168.578C274.102 167.792 273.964 167.214 273.688 166.844C273.412 166.474 272.979 166.289 272.391 166.289C271.719 166.289 271.201 166.529 270.836 167.008C270.477 167.482 270.297 168.164 270.297 169.055V174H268.86V165.25H270.297V166.562C270.552 166.062 270.899 165.685 271.336 165.43C271.774 165.169 272.292 165.039 272.891 165.039C273.782 165.039 274.446 165.333 274.883 165.922C275.326 166.505 275.547 167.391 275.547 168.578ZM294.282 161.844V163.039H292.649C292.134 163.039 291.774 163.146 291.571 163.359C291.373 163.568 291.274 163.94 291.274 164.477V165.25H294.282V166.367H291.274V174H289.837V166.367H287.501V165.25H289.837V164.641C289.837 163.682 290.056 162.977 290.493 162.523C290.936 162.07 291.623 161.844 292.556 161.844H294.282ZM304.322 167.055C304.014 166.815 303.702 166.641 303.384 166.531C303.066 166.422 302.717 166.367 302.337 166.367C301.441 166.367 300.756 166.648 300.283 167.211C299.809 167.773 299.572 168.586 299.572 169.648V174H298.126V165.25H299.572V166.961C299.811 166.341 300.178 165.867 300.673 165.539C301.173 165.206 301.764 165.039 302.447 165.039C302.801 165.039 303.131 165.083 303.439 165.172C303.746 165.26 304.04 165.398 304.322 165.586V167.055ZM309.431 166.258C308.702 166.258 308.15 166.542 307.775 167.109C307.4 167.677 307.212 168.518 307.212 169.633C307.212 170.742 307.4 171.583 307.775 172.156C308.15 172.724 308.702 173.008 309.431 173.008C310.166 173.008 310.72 172.724 311.095 172.156C311.47 171.583 311.658 170.742 311.658 169.633C311.658 168.518 311.47 167.677 311.095 167.109C310.72 166.542 310.166 166.258 309.431 166.258ZM309.431 165.039C310.645 165.039 311.572 165.432 312.212 166.219C312.858 167.005 313.181 168.143 313.181 169.633C313.181 171.128 312.861 172.268 312.22 173.055C311.58 173.836 310.65 174.227 309.431 174.227C308.218 174.227 307.291 173.836 306.65 173.055C306.009 172.268 305.689 171.128 305.689 169.633C305.689 168.143 306.009 167.005 306.65 166.219C307.291 165.432 308.218 165.039 309.431 165.039ZM319.221 166.141C319.398 165.766 319.622 165.49 319.892 165.312C320.169 165.13 320.499 165.039 320.885 165.039C321.588 165.039 322.083 165.312 322.369 165.859C322.661 166.401 322.807 167.424 322.807 168.93V174H321.494V168.992C321.494 167.758 321.424 166.992 321.283 166.695C321.148 166.393 320.898 166.242 320.533 166.242C320.116 166.242 319.83 166.404 319.674 166.727C319.523 167.044 319.447 167.799 319.447 168.992V174H318.135V168.992C318.135 167.742 318.059 166.971 317.908 166.68C317.762 166.388 317.497 166.242 317.111 166.242C316.731 166.242 316.465 166.404 316.314 166.727C316.169 167.044 316.096 167.799 316.096 168.992V174H314.791V165.25H316.096V166C316.267 165.688 316.481 165.451 316.736 165.289C316.997 165.122 317.291 165.039 317.619 165.039C318.015 165.039 318.343 165.13 318.603 165.312C318.869 165.495 319.075 165.771 319.221 166.141ZM337.862 166.141C338.039 165.766 338.263 165.49 338.534 165.312C338.81 165.13 339.141 165.039 339.526 165.039C340.229 165.039 340.724 165.312 341.01 165.859C341.302 166.401 341.448 167.424 341.448 168.93V174H340.135V168.992C340.135 167.758 340.065 166.992 339.924 166.695C339.789 166.393 339.539 166.242 339.174 166.242C338.758 166.242 338.471 166.404 338.315 166.727C338.164 167.044 338.088 167.799 338.088 168.992V174H336.776V168.992C336.776 167.742 336.7 166.971 336.549 166.68C336.404 166.388 336.138 166.242 335.753 166.242C335.372 166.242 335.107 166.404 334.956 166.727C334.81 167.044 334.737 167.799 334.737 168.992V174H333.432V165.25H334.737V166C334.909 165.688 335.122 165.451 335.378 165.289C335.638 165.122 335.932 165.039 336.26 165.039C336.656 165.039 336.984 165.13 337.245 165.312C337.51 165.495 337.716 165.771 337.862 166.141ZM348.604 171.188C348.365 171.797 348.06 172.599 347.69 173.594C347.175 174.969 346.828 175.807 346.651 176.109C346.412 176.516 346.112 176.82 345.753 177.023C345.393 177.227 344.974 177.328 344.495 177.328H343.339V176.125H344.19C344.612 176.125 344.943 176.003 345.182 175.758C345.422 175.513 345.727 174.88 346.097 173.859L342.714 165.25H344.237L346.831 172.094L349.386 165.25H350.909L348.604 171.188ZM359.511 173.555C359.126 173.779 358.727 173.945 358.316 174.055C357.909 174.169 357.493 174.227 357.066 174.227C355.711 174.227 354.652 173.82 353.886 173.008C353.126 172.195 352.745 171.07 352.745 169.633C352.745 168.195 353.126 167.07 353.886 166.258C354.652 165.445 355.711 165.039 357.066 165.039C357.487 165.039 357.899 165.094 358.3 165.203C358.701 165.312 359.105 165.482 359.511 165.711V167.219C359.131 166.88 358.748 166.635 358.362 166.484C357.982 166.333 357.55 166.258 357.066 166.258C356.165 166.258 355.472 166.549 354.987 167.133C354.503 167.716 354.261 168.549 354.261 169.633C354.261 170.711 354.503 171.544 354.987 172.133C355.477 172.716 356.17 173.008 357.066 173.008C357.566 173.008 358.014 172.932 358.409 172.781C358.805 172.625 359.172 172.385 359.511 172.062V173.555ZM365.355 166.258C364.626 166.258 364.074 166.542 363.699 167.109C363.324 167.677 363.136 168.518 363.136 169.633C363.136 170.742 363.324 171.583 363.699 172.156C364.074 172.724 364.626 173.008 365.355 173.008C366.089 173.008 366.644 172.724 367.019 172.156C367.394 171.583 367.582 170.742 367.582 169.633C367.582 168.518 367.394 167.677 367.019 167.109C366.644 166.542 366.089 166.258 365.355 166.258ZM365.355 165.039C366.569 165.039 367.496 165.432 368.136 166.219C368.782 167.005 369.105 168.143 369.105 169.633C369.105 171.128 368.785 172.268 368.144 173.055C367.503 173.836 366.574 174.227 365.355 174.227C364.141 174.227 363.214 173.836 362.574 173.055C361.933 172.268 361.613 171.128 361.613 169.633C361.613 168.143 361.933 167.005 362.574 166.219C363.214 165.432 364.141 165.039 365.355 165.039ZM370.644 165.25H372.137L374.676 172.594L377.223 165.25H378.715L375.605 174H373.754L370.644 165.25ZM387.934 168.906V169.609H381.707V169.656C381.666 170.849 381.892 171.706 382.387 172.227C382.887 172.747 383.59 173.008 384.496 173.008C384.955 173.008 385.434 172.935 385.934 172.789C386.434 172.643 386.968 172.422 387.535 172.125V173.555C386.988 173.779 386.46 173.945 385.949 174.055C385.444 174.169 384.955 174.227 384.481 174.227C383.121 174.227 382.059 173.82 381.293 173.008C380.527 172.19 380.145 171.065 380.145 169.633C380.145 168.237 380.52 167.122 381.27 166.289C382.02 165.456 383.02 165.039 384.27 165.039C385.384 165.039 386.262 165.417 386.902 166.172C387.548 166.927 387.892 167.839 387.934 168.906ZM386.496 168.484C386.434 167.88 386.212 167.359 385.832 166.922C385.457 166.479 384.916 166.258 384.207 166.258C383.514 166.258 382.944 166.487 382.496 166.945C382.048 167.404 381.804 167.919 381.762 168.492L386.496 168.484ZM397.528 167.055C397.221 166.815 396.908 166.641 396.59 166.531C396.273 166.422 395.924 166.367 395.543 166.367C394.648 166.367 393.963 166.648 393.489 167.211C393.015 167.773 392.778 168.586 392.778 169.648V174H391.332V165.25H392.778V166.961C393.017 166.341 393.385 165.867 393.879 165.539C394.379 165.206 394.971 165.039 395.653 165.039C396.007 165.039 396.338 165.083 396.645 165.172C396.952 165.26 397.247 165.398 397.528 165.586V167.055ZM400.864 170.844H403.614V174H400.864V170.844ZM412.63 169.602H412.153C411.315 169.602 410.682 169.75 410.255 170.047C409.833 170.339 409.622 170.776 409.622 171.359C409.622 171.885 409.781 172.294 410.099 172.586C410.416 172.878 410.857 173.023 411.419 173.023C412.211 173.023 412.833 172.75 413.286 172.203C413.739 171.651 413.969 170.891 413.974 169.922V169.602H412.63ZM415.419 169.008V174H413.974V172.703C413.666 173.224 413.278 173.609 412.81 173.859C412.346 174.104 411.781 174.227 411.114 174.227C410.224 174.227 409.513 173.977 408.982 173.477C408.45 172.971 408.185 172.297 408.185 171.453C408.185 170.479 408.51 169.74 409.161 169.234C409.818 168.729 410.778 168.477 412.044 168.477H413.974V168.25C413.969 167.552 413.791 167.047 413.443 166.734C413.094 166.417 412.536 166.258 411.771 166.258C411.281 166.258 410.786 166.328 410.286 166.469C409.786 166.609 409.299 166.815 408.825 167.086V165.648C409.357 165.445 409.864 165.294 410.349 165.195C410.838 165.091 411.312 165.039 411.771 165.039C412.495 165.039 413.112 165.146 413.622 165.359C414.138 165.573 414.554 165.893 414.872 166.32C415.07 166.581 415.211 166.904 415.294 167.289C415.377 167.669 415.419 168.242 415.419 169.008ZM418.935 165.281H422.615V172.883H425.466V174H418.326V172.883H421.177V166.398H418.935V165.281ZM421.177 161.883H422.615V163.695H421.177V161.883ZM31.7031 190.367V185.844H33.1406V198H31.7031V196.898C31.4635 197.331 31.1432 197.661 30.7422 197.891C30.3464 198.115 29.888 198.227 29.3672 198.227C28.3099 198.227 27.4766 197.818 26.8672 197C26.263 196.177 25.9609 195.044 25.9609 193.602C25.9609 192.18 26.2656 191.065 26.875 190.258C27.4844 189.445 28.3151 189.039 29.3672 189.039C29.8932 189.039 30.3568 189.154 30.7578 189.383C31.1589 189.607 31.474 189.935 31.7031 190.367ZM27.4766 193.633C27.4766 194.747 27.6536 195.589 28.0078 196.156C28.362 196.724 28.8854 197.008 29.5781 197.008C30.2708 197.008 30.7969 196.721 31.1562 196.148C31.5208 195.576 31.7031 194.737 31.7031 193.633C31.7031 192.523 31.5208 191.685 31.1562 191.117C30.7969 190.544 30.2708 190.258 29.5781 190.258C28.8854 190.258 28.362 190.542 28.0078 191.109C27.6536 191.677 27.4766 192.518 27.4766 193.633ZM39.805 193.602H39.3284C38.4899 193.602 37.8571 193.75 37.43 194.047C37.0081 194.339 36.7972 194.776 36.7972 195.359C36.7972 195.885 36.956 196.294 37.2738 196.586C37.5915 196.878 38.0316 197.023 38.5941 197.023C39.3857 197.023 40.0081 196.75 40.4613 196.203C40.9144 195.651 41.1435 194.891 41.1488 193.922V193.602H39.805ZM42.5941 193.008V198H41.1488V196.703C40.8415 197.224 40.4534 197.609 39.9847 197.859C39.5211 198.104 38.956 198.227 38.2894 198.227C37.3988 198.227 36.6878 197.977 36.1566 197.477C35.6253 196.971 35.3597 196.297 35.3597 195.453C35.3597 194.479 35.6852 193.74 36.3363 193.234C36.9925 192.729 37.9534 192.477 39.2191 192.477H41.1488V192.25C41.1435 191.552 40.9665 191.047 40.6175 190.734C40.2685 190.417 39.7113 190.258 38.9456 190.258C38.456 190.258 37.9613 190.328 37.4613 190.469C36.9613 190.609 36.4743 190.815 36.0003 191.086V189.648C36.5316 189.445 37.0394 189.294 37.5238 189.195C38.0133 189.091 38.4873 189.039 38.9456 189.039C39.6696 189.039 40.2868 189.146 40.7972 189.359C41.3128 189.573 41.7295 189.893 42.0472 190.32C42.2451 190.581 42.3857 190.904 42.4691 191.289C42.5524 191.669 42.5941 192.242 42.5941 193.008ZM51.2428 189.555V190.961C50.8314 190.721 50.4173 190.542 50.0006 190.422C49.584 190.302 49.1595 190.242 48.7272 190.242C48.0761 190.242 47.5892 190.349 47.2663 190.562C46.9485 190.771 46.7897 191.091 46.7897 191.523C46.7897 191.914 46.9095 192.206 47.1491 192.398C47.3886 192.591 47.985 192.779 48.9381 192.961L49.5163 193.07C50.2298 193.206 50.7689 193.477 51.1334 193.883C51.5032 194.289 51.6881 194.818 51.6881 195.469C51.6881 196.333 51.3808 197.01 50.7663 197.5C50.1517 197.984 49.2975 198.227 48.2038 198.227C47.7715 198.227 47.3183 198.18 46.8444 198.086C46.3704 197.997 45.8574 197.862 45.3053 197.68V196.195C45.8418 196.471 46.3548 196.68 46.8444 196.82C47.334 196.956 47.7975 197.023 48.235 197.023C48.8704 197.023 49.3626 196.896 49.7116 196.641C50.0605 196.38 50.235 196.018 50.235 195.555C50.235 194.888 49.597 194.427 48.3209 194.172L48.2584 194.156L47.7194 194.047C46.8913 193.885 46.2871 193.615 45.9069 193.234C45.5267 192.849 45.3366 192.326 45.3366 191.664C45.3366 190.826 45.6204 190.18 46.1881 189.727C46.7558 189.268 47.5657 189.039 48.6178 189.039C49.0866 189.039 49.5371 189.083 49.9694 189.172C50.4017 189.255 50.8261 189.383 51.2428 189.555ZM61.1728 192.578V198H59.7275V192.578C59.7275 191.792 59.5895 191.214 59.3134 190.844C59.0374 190.474 58.6051 190.289 58.0166 190.289C57.3447 190.289 56.8265 190.529 56.4619 191.008C56.1025 191.482 55.9228 192.164 55.9228 193.055V198H54.4853V185.844H55.9228V190.562C56.178 190.062 56.5244 189.685 56.9619 189.43C57.3994 189.169 57.9176 189.039 58.5166 189.039C59.4072 189.039 60.0713 189.333 60.5088 189.922C60.9515 190.505 61.1728 191.391 61.1728 192.578ZM69.4544 193.633C69.4544 192.518 69.2773 191.677 68.9231 191.109C68.569 190.542 68.0455 190.258 67.3528 190.258C66.6549 190.258 66.1263 190.544 65.7669 191.117C65.4075 191.685 65.2278 192.523 65.2278 193.633C65.2278 194.737 65.4075 195.576 65.7669 196.148C66.1263 196.721 66.6549 197.008 67.3528 197.008C68.0455 197.008 68.569 196.724 68.9231 196.156C69.2773 195.589 69.4544 194.747 69.4544 193.633ZM65.2278 190.367C65.457 189.94 65.7721 189.612 66.1731 189.383C66.5794 189.154 67.0481 189.039 67.5794 189.039C68.6315 189.039 69.4596 189.445 70.0638 190.258C70.6679 191.065 70.97 192.18 70.97 193.602C70.97 195.044 70.6653 196.177 70.0559 197C69.4518 197.818 68.621 198.227 67.5638 198.227C67.0429 198.227 66.582 198.115 66.1809 197.891C65.7851 197.661 65.4674 197.331 65.2278 196.898V198H63.7903V185.844H65.2278V190.367ZM76.4156 190.258C75.6865 190.258 75.1344 190.542 74.7594 191.109C74.3844 191.677 74.1969 192.518 74.1969 193.633C74.1969 194.742 74.3844 195.583 74.7594 196.156C75.1344 196.724 75.6865 197.008 76.4156 197.008C77.15 197.008 77.7047 196.724 78.0797 196.156C78.4547 195.583 78.6422 194.742 78.6422 193.633C78.6422 192.518 78.4547 191.677 78.0797 191.109C77.7047 190.542 77.15 190.258 76.4156 190.258ZM76.4156 189.039C77.6292 189.039 78.5563 189.432 79.1969 190.219C79.8427 191.005 80.1656 192.143 80.1656 193.633C80.1656 195.128 79.8453 196.268 79.2047 197.055C78.5641 197.836 77.6344 198.227 76.4156 198.227C75.2021 198.227 74.275 197.836 73.6344 197.055C72.9938 196.268 72.6734 195.128 72.6734 193.633C72.6734 192.143 72.9938 191.005 73.6344 190.219C74.275 189.432 75.2021 189.039 76.4156 189.039ZM86.4081 193.602H85.9316C85.093 193.602 84.4602 193.75 84.0331 194.047C83.6113 194.339 83.4003 194.776 83.4003 195.359C83.4003 195.885 83.5592 196.294 83.8769 196.586C84.1946 196.878 84.6347 197.023 85.1972 197.023C85.9889 197.023 86.6113 196.75 87.0644 196.203C87.5175 195.651 87.7467 194.891 87.7519 193.922V193.602H86.4081ZM89.1972 193.008V198H87.7519V196.703C87.4446 197.224 87.0566 197.609 86.5878 197.859C86.1243 198.104 85.5592 198.227 84.8925 198.227C84.0019 198.227 83.2909 197.977 82.7597 197.477C82.2284 196.971 81.9628 196.297 81.9628 195.453C81.9628 194.479 82.2883 193.74 82.9394 193.234C83.5956 192.729 84.5566 192.477 85.8222 192.477H87.7519V192.25C87.7467 191.552 87.5696 191.047 87.2206 190.734C86.8717 190.417 86.3144 190.258 85.5488 190.258C85.0592 190.258 84.5644 190.328 84.0644 190.469C83.5644 190.609 83.0774 190.815 82.6034 191.086V189.648C83.1347 189.445 83.6425 189.294 84.1269 189.195C84.6165 189.091 85.0904 189.039 85.5488 189.039C86.2727 189.039 86.8899 189.146 87.4003 189.359C87.9159 189.573 88.3326 189.893 88.6503 190.32C88.8482 190.581 88.9889 190.904 89.0722 191.289C89.1555 191.669 89.1972 192.242 89.1972 193.008ZM99.2678 191.055C98.9605 190.815 98.648 190.641 98.3303 190.531C98.0126 190.422 97.6636 190.367 97.2834 190.367C96.3876 190.367 95.7027 190.648 95.2288 191.211C94.7548 191.773 94.5178 192.586 94.5178 193.648V198H93.0725V189.25H94.5178V190.961C94.7574 190.341 95.1246 189.867 95.6194 189.539C96.1194 189.206 96.7105 189.039 97.3928 189.039C97.747 189.039 98.0777 189.083 98.385 189.172C98.6923 189.26 98.9866 189.398 99.2678 189.586V191.055ZM106.268 190.367V185.844H107.706V198H106.268V196.898C106.029 197.331 105.708 197.661 105.307 197.891C104.911 198.115 104.453 198.227 103.932 198.227C102.875 198.227 102.042 197.818 101.432 197C100.828 196.177 100.526 195.044 100.526 193.602C100.526 192.18 100.831 191.065 101.44 190.258C102.049 189.445 102.88 189.039 103.932 189.039C104.458 189.039 104.922 189.154 105.323 189.383C105.724 189.607 106.039 189.935 106.268 190.367ZM102.042 193.633C102.042 194.747 102.219 195.589 102.573 196.156C102.927 196.724 103.45 197.008 104.143 197.008C104.836 197.008 105.362 196.721 105.721 196.148C106.086 195.576 106.268 194.737 106.268 193.633C106.268 192.523 106.086 191.685 105.721 191.117C105.362 190.544 104.836 190.258 104.143 190.258C103.45 190.258 102.927 190.542 102.573 191.109C102.219 191.677 102.042 192.518 102.042 193.633Z" fill="#A866F7"/>
<defs>
<filter id="filter0_b_301_11" x="-13.0412" y="-13.0412" width="496.082" height="245.082" filterUnits="userSpaceOnUse" color-interpolation-filters="sRGB">
<feFlood flood-opacity="0" result="BackgroundImageFix"/>
<feGaussianBlur in="BackgroundImageFix" stdDeviation="6.52061"/>
<feComposite in2="SourceAlpha" operator="in" result="effect1_backgroundBlur_301_11"/>
<feBlend mode="normal" in="SourceGraphic" in2="effect1_backgroundBlur_301_11" result="shape"/>
</filter>
<radialGradient id="paint0_radial_301_11" cx="0" cy="0" r="1" gradientUnits="userSpaceOnUse" gradientTransform="translate(-152.655 326.067) rotate(-31.8194) scale(685.818 1294.95)">
<stop stop-opacity="0.7"/>
<stop offset="0.0001" stop-color="#F1ECEC" stop-opacity="0.96875"/>
<stop offset="1" stop-color="#5A5A5A" stop-opacity="0"/>
</radialGradient>
<linearGradient id="paint1_linear_301_11" x1="235.936" y1="-10.5288" x2="5.96888" y2="182.718" gradientUnits="userSpaceOnUse">
<stop stop-color="#212121"/>
<stop offset="1" stop-color="#8E8E8E" stop-opacity="0"/>
</linearGradient>
</defs>
</svg>
