<svg width="370" height="442" viewBox="0 0 370 442" fill="none" xmlns="http://www.w3.org/2000/svg">
<path d="M127.593 437.623H128.621V435.191H130.534C132.009 435.191 133.128 434.245 133.128 432.912C133.128 431.579 132.009 430.633 130.534 430.633H127.593V437.623ZM128.621 434.235V431.589H130.391C131.399 431.589 132.08 432.088 132.08 432.912C132.08 433.736 131.399 434.235 130.391 434.235H128.621ZM136.663 437.745C138.159 437.745 139.421 436.483 139.421 434.988C139.421 433.492 138.159 432.241 136.663 432.241C135.157 432.241 133.885 433.492 133.885 434.988C133.885 436.483 135.157 437.745 136.663 437.745ZM136.663 436.87C135.697 436.87 134.893 436.015 134.893 434.988C134.893 433.97 135.697 433.116 136.663 433.116C137.609 433.116 138.413 433.97 138.413 434.988C138.413 436.015 137.609 436.87 136.663 436.87ZM141.713 437.623H142.639L143.911 433.716L145.173 437.623H146.099L147.869 432.363H146.842L145.641 436.28L144.339 432.363H143.484L142.181 436.28L140.971 432.363H139.943L141.713 437.623ZM151.039 436.85C150.134 436.85 149.493 436.219 149.36 435.344H153.501C153.501 433.462 152.575 432.241 150.968 432.241C149.513 432.241 148.343 433.401 148.343 434.978C148.343 436.595 149.584 437.745 151.049 437.745C151.792 437.745 152.708 437.43 153.176 436.931L152.545 436.28C152.23 436.606 151.589 436.85 151.039 436.85ZM151.009 433.136C151.914 433.136 152.413 433.726 152.525 434.54H149.37C149.533 433.685 150.195 433.136 151.009 433.136ZM155.727 433.37V432.363H154.72V437.623H155.727V434.632C155.819 433.716 156.592 433.116 157.681 433.116V432.241C156.775 432.241 156.063 432.678 155.727 433.37ZM161.075 436.85C160.169 436.85 159.528 436.219 159.396 435.344H163.537C163.537 433.462 162.611 432.241 161.004 432.241C159.549 432.241 158.378 433.401 158.378 434.978C158.378 436.595 159.62 437.745 161.085 437.745C161.828 437.745 162.743 437.43 163.211 436.931L162.581 436.28C162.265 436.606 161.624 436.85 161.075 436.85ZM161.044 433.136C161.95 433.136 162.448 433.726 162.56 434.54H159.406C159.569 433.685 160.23 433.136 161.044 433.136ZM168.754 430.511V433.268C168.347 432.627 167.696 432.241 166.882 432.241C165.498 432.241 164.46 433.38 164.46 434.988C164.46 436.606 165.498 437.745 166.882 437.745C167.696 437.745 168.347 437.359 168.754 436.707V437.623H169.751V430.511H168.754ZM167.126 436.87C166.16 436.87 165.478 436.087 165.478 434.988C165.478 433.889 166.16 433.116 167.126 433.116C168.073 433.116 168.754 433.889 168.754 434.988C168.754 436.087 168.073 436.87 167.126 436.87ZM177.094 432.241C176.28 432.241 175.629 432.627 175.222 433.268V430.511H174.225V437.623H175.222V436.707C175.629 437.359 176.28 437.745 177.094 437.745C178.478 437.745 179.516 436.606 179.516 434.988C179.516 433.38 178.478 432.241 177.094 432.241ZM176.85 436.87C175.904 436.87 175.222 436.087 175.222 434.988C175.222 433.889 175.904 433.116 176.85 433.116C177.817 433.116 178.498 433.889 178.498 434.988C178.498 436.087 177.817 436.87 176.85 436.87ZM181.658 439.455C182.411 439.444 182.97 439.048 183.347 438.101L185.667 432.363H184.619L183.021 436.514L181.332 432.363H180.254L182.513 437.654L182.248 438.213C182.075 438.518 181.851 438.62 181.526 438.62C181.322 438.62 181.088 438.569 180.885 438.457L180.661 439.231C180.935 439.373 181.302 439.455 181.658 439.455Z" fill="#C6C6C6"/>
<path d="M189.786 437.623H191.058V432.953L193.357 437.216L195.667 432.953V437.623H196.929V430.633H195.667L193.357 434.896L191.058 430.633H189.786V437.623ZM199.506 439.455C200.299 439.444 200.91 438.986 201.307 437.989L203.535 432.363H202.253L200.808 436.29L199.272 432.363H197.959L200.187 437.664L199.964 438.132C199.811 438.386 199.587 438.478 199.292 438.478C199.099 438.478 198.844 438.407 198.62 438.284L198.356 439.18C198.671 439.353 199.109 439.455 199.506 439.455ZM207.062 437.745C207.896 437.745 208.598 437.399 209.107 436.86L208.273 436.138C207.978 436.473 207.53 436.687 207.072 436.687C206.207 436.687 205.485 435.914 205.485 434.988C205.485 434.072 206.207 433.299 207.072 433.299C207.52 433.299 207.957 433.512 208.242 433.828L209.076 433.095C208.578 432.576 207.876 432.241 207.082 432.241C205.546 432.241 204.254 433.492 204.254 434.988C204.254 436.483 205.546 437.745 207.062 437.745ZM212.517 437.745C214.043 437.745 215.335 436.483 215.335 434.988C215.335 433.492 214.043 432.241 212.517 432.241C210.991 432.241 209.699 433.492 209.699 434.988C209.699 436.483 210.991 437.745 212.517 437.745ZM212.517 436.687C211.642 436.687 210.909 435.914 210.909 434.988C210.909 434.072 211.642 433.299 212.517 433.299C213.382 433.299 214.115 434.072 214.115 434.988C214.115 435.914 213.382 436.687 212.517 436.687ZM217.934 437.623H219.104L221.332 432.363H220.01L218.514 436.188L216.988 432.363H215.675L217.934 437.623ZM224.309 436.646C223.556 436.646 223.007 436.138 222.854 435.415H226.823C226.823 433.472 225.876 432.241 224.248 432.241C222.753 432.241 221.572 433.401 221.572 434.978C221.572 436.595 222.814 437.745 224.32 437.745C225.083 437.745 225.998 437.42 226.456 436.931L225.673 436.117C225.378 436.422 224.798 436.646 224.309 436.646ZM224.299 433.339C225.042 433.339 225.49 433.807 225.632 434.469H222.865C223.048 433.777 223.607 433.339 224.299 433.339ZM229.17 433.38V432.363H227.929V437.623H229.17V434.967C229.17 433.97 229.923 433.299 231.053 433.299V432.241C230.188 432.241 229.506 432.678 229.17 433.38ZM232.725 437.745C233.153 437.745 233.509 437.379 233.509 436.931C233.509 436.514 233.153 436.148 232.725 436.148C232.257 436.148 231.911 436.514 231.911 436.931C231.911 437.379 232.257 437.745 232.725 437.745ZM237.084 432.241C236.422 432.241 235.73 432.424 234.988 432.79L235.415 433.655C235.863 433.431 236.341 433.258 236.839 433.258C237.796 433.258 238.132 433.848 238.132 434.459V434.601C237.653 434.418 237.135 434.316 236.656 434.316C235.476 434.316 234.509 435.028 234.509 436.066C234.509 437.084 235.354 437.745 236.473 437.745C237.084 437.745 237.745 437.481 238.132 436.992V437.623H239.342V434.459C239.342 433.126 238.478 432.241 237.084 432.241ZM236.748 436.84C236.158 436.84 235.72 436.524 235.72 436.026C235.72 435.527 236.219 435.181 236.839 435.181C237.307 435.181 237.745 435.252 238.132 435.385V435.975C237.989 436.534 237.348 436.84 236.748 436.84ZM241.317 431.569C241.704 431.569 242.019 431.233 242.019 430.857C242.019 430.48 241.704 430.155 241.317 430.155C240.921 430.155 240.605 430.48 240.605 430.857C240.605 431.233 240.921 431.569 241.317 431.569ZM240.687 437.623H241.928V432.363H240.687V437.623Z" fill="#FAFBFD"/>
<g filter="url(#filter0_dd_135_4406)">
<rect x="13" y="12" width="344.035" height="397.453" rx="2.5437" fill="white"/>
</g>
<path d="M36.7807 124.112H37.8084V118.811L41.8274 124.112H42.8551V117.122H41.8274V122.423L37.8084 117.122H36.7807V124.112ZM46.6857 118.73C46.1058 118.73 45.4444 118.882 44.6915 119.259L45.0578 120.001C45.5156 119.767 46.0244 119.564 46.5433 119.564C47.5913 119.564 47.8965 120.266 47.8965 120.927V121.09C47.3878 120.917 46.8282 120.805 46.3093 120.805C45.1493 120.805 44.2031 121.507 44.2031 122.555C44.2031 123.583 45.0272 124.234 46.1465 124.234C46.7875 124.234 47.5099 123.939 47.8965 123.39V124.112H48.8835V120.927C48.8835 119.625 48.1 118.73 46.6857 118.73ZM46.3398 123.441C45.6784 123.441 45.1697 123.095 45.1697 122.525C45.1697 121.955 45.7598 121.558 46.4619 121.558C46.9808 121.558 47.4692 121.629 47.8965 121.762V122.464C47.7236 123.115 46.991 123.441 46.3398 123.441ZM56.2213 118.73C55.4276 118.73 54.7561 119.137 54.5119 119.788C54.2066 119.137 53.586 118.73 52.8229 118.73C52.1513 118.73 51.6019 119.065 51.3374 119.584V118.852H50.33V124.112H51.3374V120.826C51.3374 120.103 51.8664 119.605 52.6194 119.605C53.2807 119.605 53.7386 120.144 53.7386 120.917V124.112H54.7256V120.826C54.7256 120.103 55.2547 119.605 56.0076 119.605C56.6689 119.605 57.1268 120.144 57.1268 120.917V124.112H58.1138V120.765C58.1138 119.574 57.3201 118.73 56.2213 118.73ZM61.9726 123.339C61.067 123.339 60.426 122.708 60.2937 121.833H64.4349C64.4349 119.951 63.509 118.73 61.9013 118.73C60.4463 118.73 59.2762 119.89 59.2762 121.467C59.2762 123.084 60.5176 124.234 61.9827 124.234C62.7255 124.234 63.6412 123.919 64.1093 123.42L63.4784 122.769C63.163 123.095 62.522 123.339 61.9726 123.339ZM61.942 119.625C62.8476 119.625 63.3462 120.215 63.4581 121.029H60.3039C60.4667 120.174 61.1281 119.625 61.942 119.625ZM71.0066 124.234C72.5023 124.234 73.764 122.972 73.764 121.477C73.764 119.981 72.5023 118.73 71.0066 118.73C69.5007 118.73 68.2289 119.981 68.2289 121.477C68.2289 122.972 69.5007 124.234 71.0066 124.234ZM71.0066 123.359C70.04 123.359 69.2362 122.504 69.2362 121.477C69.2362 120.459 70.04 119.605 71.0066 119.605C71.9528 119.605 72.7567 120.459 72.7567 121.477C72.7567 122.504 71.9528 123.359 71.0066 123.359ZM76.3263 118.272C76.3263 117.905 76.5705 117.641 76.8656 117.641C77.0895 117.641 77.2929 117.722 77.4049 117.834L77.7712 117.163C77.4863 116.929 77.0996 116.786 76.7232 116.786C75.9092 116.786 75.3394 117.376 75.3394 118.221V118.852H74.5458V119.706H75.3394V124.112H76.3263V119.706H77.5677V118.852H76.3263V118.272ZM81.5509 124.112H82.5786V121.68H84.4915C85.9668 121.68 87.086 120.734 87.086 119.401C87.086 118.068 85.9668 117.122 84.4915 117.122H81.5509V124.112ZM82.5786 120.724V118.078H84.349C85.3563 118.078 86.038 118.577 86.038 119.401C86.038 120.225 85.3563 120.724 84.349 120.724H82.5786ZM88.1281 124.112H89.1252V117H88.1281V124.112ZM92.8002 118.73C92.2202 118.73 91.5589 118.882 90.806 119.259L91.1722 120.001C91.6301 119.767 92.1389 119.564 92.6578 119.564C93.7058 119.564 94.011 120.266 94.011 120.927V121.09C93.5023 120.917 92.9427 120.805 92.4237 120.805C91.2638 120.805 90.3176 121.507 90.3176 122.555C90.3176 123.583 91.1417 124.234 92.2609 124.234C92.902 124.234 93.6244 123.939 94.011 123.39V124.112H94.998V120.927C94.998 119.625 94.2145 118.73 92.8002 118.73ZM92.4543 123.441C91.7929 123.441 91.2842 123.095 91.2842 122.525C91.2842 121.955 91.8743 121.558 92.5764 121.558C93.0953 121.558 93.5837 121.629 94.011 121.762V122.464C93.838 123.115 93.1055 123.441 92.4543 123.441ZM99.1307 118.73C98.4185 118.73 97.7774 119.096 97.462 119.615V118.852H96.4547V124.112H97.462V120.704C97.5434 120.083 98.1743 119.605 98.9068 119.605C99.6191 119.605 100.118 120.154 100.118 120.938V124.112H101.105V120.765C101.105 119.574 100.291 118.73 99.1307 118.73ZM108.845 124.234C110.809 124.234 112.457 122.576 112.457 120.612C112.457 118.648 110.809 117 108.845 117C106.881 117 105.213 118.648 105.213 120.612C105.213 122.576 106.881 124.234 108.845 124.234ZM108.845 123.288C107.451 123.288 106.271 122.067 106.271 120.612C106.271 119.167 107.451 117.946 108.845 117.946C110.239 117.946 111.409 119.167 111.409 120.612C111.409 122.067 110.239 123.288 108.845 123.288ZM115.017 124.112H115.943L117.215 120.205L118.477 124.112H119.403L121.173 118.852H120.145L118.945 122.769L117.642 118.852H116.788L115.485 122.769L114.274 118.852H113.247L115.017 124.112ZM124.866 118.73C124.154 118.73 123.513 119.096 123.197 119.615V118.852H122.19V124.112H123.197V120.704C123.279 120.083 123.909 119.605 124.642 119.605C125.354 119.605 125.853 120.154 125.853 120.938V124.112H126.84V120.765C126.84 119.574 126.026 118.73 124.866 118.73ZM130.692 123.339C129.787 123.339 129.146 122.708 129.013 121.833H133.154C133.154 119.951 132.229 118.73 130.621 118.73C129.166 118.73 127.996 119.89 127.996 121.467C127.996 123.084 129.237 124.234 130.702 124.234C131.445 124.234 132.361 123.919 132.829 123.42L132.198 122.769C131.883 123.095 131.242 123.339 130.692 123.339ZM130.662 119.625C131.567 119.625 132.066 120.215 132.178 121.029H129.024C129.186 120.174 129.848 119.625 130.662 119.625ZM135.38 119.859V118.852H134.373V124.112H135.38V121.121C135.472 120.205 136.245 119.605 137.334 119.605V118.73C136.428 118.73 135.716 119.167 135.38 119.859Z" fill="#344054"/>
<rect x="36.1499" y="134.454" width="295.196" height="30.7535" rx="2.28933" fill="#F9FAFB"/>
<path d="M51.8903 146.593V145.84H46.8741V152.831H47.6779V149.646H51.4731V148.893H47.6779V146.593H51.8903ZM53.4203 146.614C53.6951 146.614 53.9189 146.38 53.9189 146.105C53.9189 145.84 53.6951 145.606 53.4203 145.606C53.1354 145.606 52.9116 145.84 52.9116 146.105C52.9116 146.38 53.1354 146.614 53.4203 146.614ZM53.0337 152.831H53.7968V147.57H53.0337V152.831ZM56.1636 148.598V147.57H55.4004V152.831H56.1636V149.89C56.1636 148.862 57.0081 148.13 58.1985 148.13V147.448C57.2319 147.448 56.479 147.896 56.1636 148.598ZM61.1161 152.953C62.2048 152.953 63.0391 152.332 63.0391 151.365C63.0391 150.368 62.1641 150.083 61.3196 149.819C60.3428 149.503 59.9561 149.361 59.9561 148.903C59.9561 148.394 60.4445 148.13 61.0347 148.13C61.5027 148.13 62.0216 148.293 62.5507 148.628L62.917 148.038C62.3574 147.672 61.6858 147.448 61.0347 147.448C59.9867 147.448 59.193 148.038 59.193 148.995C59.193 149.748 59.6814 150.124 60.9533 150.49C61.6655 150.694 62.276 150.877 62.276 151.447C62.276 151.945 61.8079 152.271 61.1161 152.271C60.5361 152.271 59.9358 152.047 59.3355 151.61L58.9386 152.169C59.5695 152.678 60.3835 152.953 61.1161 152.953ZM66.6114 152.057C66.4995 152.179 66.296 152.271 66.062 152.271C65.7567 152.271 65.4922 151.996 65.4922 151.61V148.252H66.7844V147.57H65.4922V146.125H64.7291V147.57H63.9049V148.252H64.7291V151.61C64.7291 152.393 65.2582 152.953 66.0111 152.953C66.3672 152.953 66.7131 152.831 66.9879 152.617L66.6114 152.057ZM71.2018 152.831H71.9955V147.143L76.3299 152.831H77.1236V145.84H76.3299V151.528L71.9955 145.84H71.2018V152.831ZM80.9852 147.448C80.4765 147.448 79.8456 147.58 79.0927 147.957L79.3979 148.578C79.8762 148.333 80.4052 148.099 80.9343 148.099C82.0739 148.099 82.3588 148.913 82.3588 149.626V149.819C81.8195 149.646 81.2192 149.524 80.6494 149.524C79.52 149.524 78.584 150.226 78.584 151.274C78.584 152.312 79.3979 152.953 80.507 152.953C81.1989 152.953 81.9823 152.627 82.3588 152.006V152.831H83.1219V149.626C83.1219 148.354 82.4199 147.448 80.9852 147.448ZM80.6393 152.281C79.8965 152.281 79.3267 151.894 79.3267 151.243C79.3267 150.612 79.9881 150.165 80.7715 150.165C81.3413 150.165 81.8806 150.246 82.3588 150.378V151.182C82.1553 151.925 81.3312 152.281 80.6393 152.281ZM90.3688 147.448C89.5752 147.448 88.8833 147.886 88.6696 148.567C88.3848 147.886 87.7641 147.448 86.9705 147.448C86.2786 147.448 85.7088 147.794 85.4442 148.343V147.57H84.6811V152.831H85.4442V149.483C85.4442 148.689 86.0344 148.13 86.8687 148.13C87.5809 148.13 88.0795 148.73 88.0795 149.585V152.831H88.8426V149.483C88.8426 148.689 89.4328 148.13 90.2671 148.13C90.9793 148.13 91.4779 148.73 91.4779 149.585V152.831H92.241V149.483C92.241 148.293 91.4677 147.448 90.3688 147.448ZM96.1535 152.271C95.1157 152.271 94.3933 151.518 94.2814 150.49H98.5853C98.5853 148.649 97.6798 147.448 96.0925 147.448C94.6782 147.448 93.4979 148.618 93.4979 150.185C93.4979 151.803 94.7596 152.953 96.1637 152.953C96.8963 152.953 97.8222 152.637 98.2801 152.139L97.812 151.64C97.4864 151.996 96.7742 152.271 96.1535 152.271ZM96.123 148.13C97.171 148.13 97.7306 148.862 97.8324 149.809H94.2915C94.434 148.791 95.1869 148.13 96.123 148.13ZM100.241 154.184C100.852 153.421 101.024 153.075 101.024 152.668C101.024 152.2 100.79 151.854 100.404 151.854C100.078 151.854 99.8442 152.108 99.8442 152.393C99.8442 152.698 100.088 152.953 100.394 152.953C100.312 153.268 100.139 153.584 99.8646 153.899L100.241 154.184ZM106.18 152.078V145.84H105.387V152.831H109.996V152.078H106.18ZM113.248 147.448C112.74 147.448 112.109 147.58 111.356 147.957L111.661 148.578C112.139 148.333 112.668 148.099 113.198 148.099C114.337 148.099 114.622 148.913 114.622 149.626V149.819C114.083 149.646 113.482 149.524 112.913 149.524C111.783 149.524 110.847 150.226 110.847 151.274C110.847 152.312 111.661 152.953 112.77 152.953C113.462 152.953 114.246 152.627 114.622 152.006V152.831H115.385V149.626C115.385 148.354 114.683 147.448 113.248 147.448ZM112.903 152.281C112.16 152.281 111.59 151.894 111.59 151.243C111.59 150.612 112.251 150.165 113.035 150.165C113.605 150.165 114.144 150.246 114.622 150.378V151.182C114.419 151.925 113.594 152.281 112.903 152.281ZM118.806 152.953C119.895 152.953 120.729 152.332 120.729 151.365C120.729 150.368 119.854 150.083 119.01 149.819C118.033 149.503 117.646 149.361 117.646 148.903C117.646 148.394 118.135 148.13 118.725 148.13C119.193 148.13 119.712 148.293 120.241 148.628L120.607 148.038C120.048 147.672 119.376 147.448 118.725 147.448C117.677 147.448 116.883 148.038 116.883 148.995C116.883 149.748 117.372 150.124 118.644 150.49C119.356 150.694 119.966 150.877 119.966 151.447C119.966 151.945 119.498 152.271 118.806 152.271C118.226 152.271 117.626 152.047 117.026 151.61L116.629 152.169C117.26 152.678 118.074 152.953 118.806 152.953ZM124.302 152.057C124.19 152.179 123.986 152.271 123.752 152.271C123.447 152.271 123.182 151.996 123.182 151.61V148.252H124.475V147.57H123.182V146.125H122.419V147.57H121.595V148.252H122.419V151.61C122.419 152.393 122.948 152.953 123.701 152.953C124.058 152.953 124.403 152.831 124.678 152.617L124.302 152.057ZM128.892 152.831H129.686V147.143L134.02 152.831H134.814V145.84H134.02V151.528L129.686 145.84H128.892V152.831ZM138.676 147.448C138.167 147.448 137.536 147.58 136.783 147.957L137.088 148.578C137.566 148.333 138.096 148.099 138.625 148.099C139.764 148.099 140.049 148.913 140.049 149.626V149.819C139.51 149.646 138.91 149.524 138.34 149.524C137.21 149.524 136.274 150.226 136.274 151.274C136.274 152.312 137.088 152.953 138.197 152.953C138.889 152.953 139.673 152.627 140.049 152.006V152.831H140.812V149.626C140.812 148.354 140.11 147.448 138.676 147.448ZM138.33 152.281C137.587 152.281 137.017 151.894 137.017 151.243C137.017 150.612 137.678 150.165 138.462 150.165C139.032 150.165 139.571 150.246 140.049 150.378V151.182C139.846 151.925 139.021 152.281 138.33 152.281ZM148.059 147.448C147.266 147.448 146.574 147.886 146.36 148.567C146.075 147.886 145.454 147.448 144.661 147.448C143.969 147.448 143.399 147.794 143.135 148.343V147.57H142.371V152.831H143.135V149.483C143.135 148.689 143.725 148.13 144.559 148.13C145.271 148.13 145.77 148.73 145.77 149.585V152.831H146.533V149.483C146.533 148.689 147.123 148.13 147.957 148.13C148.67 148.13 149.168 148.73 149.168 149.585V152.831H149.931V149.483C149.931 148.293 149.158 147.448 148.059 147.448ZM153.844 152.271C152.806 152.271 152.084 151.518 151.972 150.49H156.276C156.276 148.649 155.37 147.448 153.783 147.448C152.368 147.448 151.188 148.618 151.188 150.185C151.188 151.803 152.45 152.953 153.854 152.953C154.587 152.953 155.513 152.637 155.97 152.139L155.502 151.64C155.177 151.996 154.465 152.271 153.844 152.271ZM153.813 148.13C154.861 148.13 155.421 148.862 155.523 149.809H151.982C152.124 148.791 152.877 148.13 153.813 148.13Z" fill="#98A2B3"/>
<rect x="36.1499" y="134.454" width="295.196" height="30.7535" rx="2.28933" stroke="#EAECF0" stroke-width="0.50874"/>
<path d="M41.7969 180.399V179.443H36.6586V186.433H41.7969V185.476H37.6964V183.35H41.4001V182.393H37.6964V180.399H41.7969ZM48.9379 181.05C48.1443 181.05 47.4728 181.457 47.2286 182.108C46.9233 181.457 46.3027 181.05 45.5395 181.05C44.868 181.05 44.3186 181.386 44.054 181.905V181.172H43.0467V186.433H44.054V183.146C44.054 182.424 44.5831 181.925 45.3361 181.925C45.9974 181.925 46.4553 182.464 46.4553 183.238V186.433H47.4422V183.146C47.4422 182.424 47.9713 181.925 48.7243 181.925C49.3856 181.925 49.8435 182.464 49.8435 183.238V186.433H50.8304V183.085C50.8304 181.895 50.0368 181.05 48.9379 181.05ZM54.4857 181.05C53.9058 181.05 53.2444 181.203 52.4915 181.579L52.8578 182.322C53.3156 182.088 53.8244 181.884 54.3433 181.884C55.3913 181.884 55.6965 182.587 55.6965 183.248V183.411C55.1878 183.238 54.6282 183.126 54.1093 183.126C52.9493 183.126 52.0031 183.828 52.0031 184.876C52.0031 185.904 52.8272 186.555 53.9465 186.555C54.5875 186.555 55.3099 186.26 55.6965 185.71V186.433H56.6835V183.248C56.6835 181.946 55.9 181.05 54.4857 181.05ZM54.1398 185.761C53.4784 185.761 52.9697 185.415 52.9697 184.845C52.9697 184.276 53.5598 183.879 54.2619 183.879C54.7808 183.879 55.2692 183.95 55.6965 184.082V184.784C55.5236 185.435 54.791 185.761 54.1398 185.761ZM58.6388 180.297C58.9644 180.297 59.2391 180.012 59.2391 179.687C59.2391 179.371 58.9644 179.086 58.6388 179.086C58.2929 179.086 58.0283 179.371 58.0283 179.687C58.0283 180.012 58.2929 180.297 58.6388 180.297ZM58.1301 186.433H59.1374V181.172H58.1301V186.433ZM60.5945 186.433H61.5916V179.32H60.5945V186.433Z" fill="#344054"/>
<rect x="36.1499" y="196.774" width="295.196" height="30.7535" rx="2.28933" fill="#F9FAFB"/>
<path d="M51.8903 208.914V208.161H46.8741V215.151H51.8903V214.398H47.6779V211.966H51.4731V211.213H47.6779V208.914H51.8903ZM55.7257 209.769C54.983 209.769 54.3012 210.176 53.996 210.735V209.891H53.2329V215.151H53.996V211.804C53.996 211.071 54.7388 210.45 55.624 210.45C56.3973 210.45 56.9365 211.051 56.9365 211.905V215.151H57.6996V211.804C57.6996 210.613 56.8856 209.769 55.7257 209.769ZM61.5538 214.378C61.4419 214.5 61.2384 214.592 61.0044 214.592C60.6991 214.592 60.4346 214.317 60.4346 213.93V210.572H61.7268V209.891H60.4346V208.446H59.6715V209.891H58.8473V210.572H59.6715V213.93C59.6715 214.714 60.2006 215.273 60.9535 215.273C61.3096 215.273 61.6556 215.151 61.9303 214.937L61.5538 214.378ZM65.3807 214.592C64.3429 214.592 63.6205 213.839 63.5086 212.811H67.8125C67.8125 210.969 66.9069 209.769 65.3197 209.769C63.9054 209.769 62.7251 210.939 62.7251 212.506C62.7251 214.123 63.9868 215.273 65.3909 215.273C66.1235 215.273 67.0494 214.958 67.5073 214.459L67.0392 213.961C66.7136 214.317 66.0014 214.592 65.3807 214.592ZM65.3502 210.45C66.3982 210.45 66.9578 211.183 67.0596 212.129H63.5187C63.6612 211.112 64.4141 210.45 65.3502 210.45ZM69.8956 210.918V209.891H69.1324V215.151H69.8956V212.211C69.8956 211.183 70.7401 210.45 71.9305 210.45V209.769C70.9639 209.769 70.211 210.216 69.8956 210.918ZM78.3079 214.592C77.2701 214.592 76.5476 213.839 76.4357 212.811H80.7397C80.7397 210.969 79.8341 209.769 78.2468 209.769C76.8325 209.769 75.6523 210.939 75.6523 212.506C75.6523 214.123 76.9139 215.273 78.3181 215.273C79.0506 215.273 79.9766 214.958 80.4344 214.459L79.9664 213.961C79.6408 214.317 78.9286 214.592 78.3079 214.592ZM78.2774 210.45C79.3254 210.45 79.885 211.183 79.9867 212.129H76.4459C76.5883 211.112 77.3413 210.45 78.2774 210.45ZM87.6761 209.769C86.8825 209.769 86.1906 210.206 85.9769 210.888C85.692 210.206 85.0713 209.769 84.2777 209.769C83.5858 209.769 83.016 210.115 82.7515 210.664V209.891H81.9884V215.151H82.7515V211.804C82.7515 211.01 83.3416 210.45 84.176 210.45C84.8882 210.45 85.3868 211.051 85.3868 211.905V215.151H86.1499V211.804C86.1499 211.01 86.74 210.45 87.5743 210.45C88.2866 210.45 88.7851 211.051 88.7851 211.905V215.151H89.5483V211.804C89.5483 210.613 88.775 209.769 87.6761 209.769ZM93.2268 209.769C92.718 209.769 92.0872 209.901 91.3343 210.277L91.6395 210.898C92.1177 210.654 92.6468 210.42 93.1759 210.42C94.3155 210.42 94.6004 211.234 94.6004 211.946V212.139C94.0611 211.966 93.4608 211.844 92.891 211.844C91.7616 211.844 90.8255 212.546 90.8255 213.594C90.8255 214.632 91.6395 215.273 92.7485 215.273C93.4404 215.273 94.2239 214.948 94.6004 214.327V215.151H95.3635V211.946C95.3635 210.674 94.6614 209.769 93.2268 209.769ZM92.8808 214.602C92.1381 214.602 91.5683 214.215 91.5683 213.564C91.5683 212.933 92.2296 212.485 93.0131 212.485C93.5829 212.485 94.1221 212.567 94.6004 212.699V213.503C94.3969 214.246 93.5727 214.602 92.8808 214.602ZM97.2992 208.934C97.5739 208.934 97.7977 208.7 97.7977 208.426C97.7977 208.161 97.5739 207.927 97.2992 207.927C97.0143 207.927 96.7904 208.161 96.7904 208.426C96.7904 208.7 97.0143 208.934 97.2992 208.934ZM96.9125 215.151H97.6756V209.891H96.9125V215.151ZM99.208 215.151H99.9711V208.039H99.208V215.151ZM106.601 209.769C106.092 209.769 105.461 209.901 104.709 210.277L105.014 210.898C105.492 210.654 106.021 210.42 106.55 210.42C107.69 210.42 107.975 211.234 107.975 211.946V212.139C107.435 211.966 106.835 211.844 106.265 211.844C105.136 211.844 104.2 212.546 104.2 213.594C104.2 214.632 105.014 215.273 106.123 215.273C106.815 215.273 107.598 214.948 107.975 214.327V215.151H108.738V211.946C108.738 210.674 108.036 209.769 106.601 209.769ZM106.255 214.602C105.512 214.602 104.943 214.215 104.943 213.564C104.943 212.933 105.604 212.485 106.387 212.485C106.957 212.485 107.496 212.567 107.975 212.699V213.503C107.771 214.246 106.947 214.602 106.255 214.602ZM114.408 208.039V210.878C114.011 210.186 113.339 209.769 112.495 209.769C111.111 209.769 110.073 210.908 110.073 212.516C110.073 214.134 111.111 215.273 112.495 215.273C113.339 215.273 114.011 214.856 114.408 214.164V215.151H115.171V208.039H114.408ZM112.637 214.592C111.61 214.592 110.877 213.727 110.877 212.516C110.877 211.305 111.61 210.45 112.637 210.45C113.675 210.45 114.408 211.305 114.408 212.516C114.408 213.727 113.675 214.592 112.637 214.592ZM120.896 208.039V210.878C120.499 210.186 119.828 209.769 118.983 209.769C117.599 209.769 116.562 210.908 116.562 212.516C116.562 214.134 117.599 215.273 118.983 215.273C119.828 215.273 120.499 214.856 120.896 214.164V215.151H121.659V208.039H120.896ZM119.126 214.592C118.098 214.592 117.365 213.727 117.365 212.516C117.365 211.305 118.098 210.45 119.126 210.45C120.163 210.45 120.896 211.305 120.896 212.516C120.896 213.727 120.163 214.592 119.126 214.592ZM124.108 210.918V209.891H123.345V215.151H124.108V212.211C124.108 211.183 124.953 210.45 126.143 210.45V209.769C125.177 209.769 124.424 210.216 124.108 210.918ZM129.569 214.592C128.532 214.592 127.809 213.839 127.697 212.811H132.001C132.001 210.969 131.096 209.769 129.508 209.769C128.094 209.769 126.914 210.939 126.914 212.506C126.914 214.123 128.175 215.273 129.58 215.273C130.312 215.273 131.238 214.958 131.696 214.459L131.228 213.961C130.902 214.317 130.19 214.592 129.569 214.592ZM129.539 210.45C130.587 210.45 131.146 211.183 131.248 212.129H127.707C127.85 211.112 128.603 210.45 129.539 210.45ZM135.112 215.273C136.201 215.273 137.035 214.653 137.035 213.686C137.035 212.689 136.16 212.404 135.315 212.139C134.339 211.824 133.952 211.682 133.952 211.224C133.952 210.715 134.44 210.45 135.03 210.45C135.499 210.45 136.017 210.613 136.547 210.949L136.913 210.359C136.353 209.993 135.682 209.769 135.03 209.769C133.982 209.769 133.189 210.359 133.189 211.315C133.189 212.068 133.677 212.445 134.949 212.811C135.661 213.014 136.272 213.198 136.272 213.767C136.272 214.266 135.804 214.592 135.112 214.592C134.532 214.592 133.932 214.368 133.331 213.93L132.934 214.49C133.565 214.999 134.379 215.273 135.112 215.273ZM140.16 215.273C141.248 215.273 142.083 214.653 142.083 213.686C142.083 212.689 141.208 212.404 140.363 212.139C139.386 211.824 139 211.682 139 211.224C139 210.715 139.488 210.45 140.078 210.45C140.546 210.45 141.065 210.613 141.594 210.949L141.96 210.359C141.401 209.993 140.729 209.769 140.078 209.769C139.03 209.769 138.236 210.359 138.236 211.315C138.236 212.068 138.725 212.445 139.997 212.811C140.709 213.014 141.319 213.198 141.319 213.767C141.319 214.266 140.851 214.592 140.16 214.592C139.58 214.592 138.979 214.368 138.379 213.93L137.982 214.49C138.613 214.999 139.427 215.273 140.16 215.273Z" fill="#98A2B3"/>
<rect x="36.1499" y="196.774" width="295.196" height="30.7535" rx="2.28933" stroke="#EAECF0" stroke-width="0.50874"/>
<path d="M35.8936 279.088H333.506" stroke="#EAECF0" stroke-width="0.635925"/>
<g filter="url(#filter1_d_135_4406)">
<rect x="35.8936" y="328.055" width="298.885" height="32.8933" rx="3.17962" fill="#E18C2F" shape-rendering="crispEdges"/>
<path d="M166.957 347.623C167.954 347.623 168.87 347.196 169.531 346.524L168.809 345.833C168.341 346.341 167.679 346.677 166.957 346.677C165.563 346.677 164.383 345.456 164.383 344.001C164.383 342.556 165.563 341.335 166.957 341.335C167.679 341.335 168.341 341.671 168.809 342.18L169.531 341.488C168.87 340.806 167.954 340.389 166.957 340.389C164.993 340.389 163.324 342.037 163.324 344.001C163.324 345.965 164.993 347.623 166.957 347.623ZM173.027 347.623C174.522 347.623 175.784 346.362 175.784 344.866C175.784 343.37 174.522 342.119 173.027 342.119C171.521 342.119 170.249 343.37 170.249 344.866C170.249 346.362 171.521 347.623 173.027 347.623ZM173.027 346.748C172.06 346.748 171.256 345.894 171.256 344.866C171.256 343.848 172.06 342.994 173.027 342.994C173.973 342.994 174.777 343.848 174.777 344.866C174.777 345.894 173.973 346.748 173.027 346.748ZM179.639 342.119C178.926 342.119 178.285 342.485 177.97 343.004V342.241H176.963V347.501H177.97V344.093C178.051 343.472 178.682 342.994 179.415 342.994C180.127 342.994 180.626 343.543 180.626 344.327V347.501H181.613V344.154C181.613 342.963 180.799 342.119 179.639 342.119ZM185.516 346.555C185.404 346.667 185.201 346.748 184.977 346.748C184.682 346.748 184.437 346.484 184.437 346.117V343.096H185.679V342.241H184.437V340.796H183.45V342.241H182.657V343.096H183.45V346.189C183.45 347.033 184.02 347.623 184.834 347.623C185.211 347.623 185.597 347.481 185.882 347.247L185.516 346.555ZM187.408 341.366C187.733 341.366 188.008 341.081 188.008 340.755C188.008 340.44 187.733 340.155 187.408 340.155C187.062 340.155 186.797 340.44 186.797 340.755C186.797 341.081 187.062 341.366 187.408 341.366ZM186.899 347.501H187.906V342.241H186.899V347.501ZM192.039 342.119C191.327 342.119 190.686 342.485 190.371 343.004V342.241H189.363V347.501H190.371V344.093C190.452 343.472 191.083 342.994 191.815 342.994C192.528 342.994 193.026 343.543 193.026 344.327V347.501H194.013V344.154C194.013 342.963 193.199 342.119 192.039 342.119ZM199.076 342.241V345.649C198.995 346.27 198.364 346.748 197.632 346.748C196.919 346.748 196.421 346.199 196.421 345.415V342.241H195.434V345.588C195.434 346.779 196.248 347.623 197.408 347.623C198.12 347.623 198.761 347.257 199.076 346.738V347.501H200.084V342.241H199.076ZM203.957 346.728C203.051 346.728 202.41 346.097 202.278 345.222H206.419C206.419 343.34 205.493 342.119 203.885 342.119C202.43 342.119 201.26 343.279 201.26 344.856C201.26 346.474 202.502 347.623 203.967 347.623C204.71 347.623 205.625 347.308 206.093 346.809L205.462 346.158C205.147 346.484 204.506 346.728 203.957 346.728ZM203.926 343.014C204.832 343.014 205.33 343.604 205.442 344.418H202.288C202.451 343.564 203.112 343.014 203.926 343.014Z" fill="white"/>
</g>
<rect x="30.1699" y="29.1699" width="309.695" height="42.607" rx="1.27185" fill="#FFE0BF"/>
<path d="M80.585 40.7676V39.8112H75.4467V46.8013H80.585V45.8448H76.4845V43.7183H80.1882V42.7619H76.4845V40.7676H80.585ZM84.521 41.4188C83.8087 41.4188 83.1677 41.7851 82.8523 42.304V41.5409H81.845V46.8013H82.8523V43.3927C82.9337 42.772 83.5645 42.2938 84.2971 42.2938C85.0093 42.2938 85.5079 42.8433 85.5079 43.6267V46.8013H86.4949V43.4538C86.4949 42.2633 85.6809 41.4188 84.521 41.4188ZM90.3983 45.855C90.2863 45.9669 90.0828 46.0483 89.859 46.0483C89.5639 46.0483 89.3197 45.7838 89.3197 45.4175V42.3956H90.561V41.5409H89.3197V40.0961H88.3328V41.5409H87.5391V42.3956H88.3328V45.4887C88.3328 46.3332 88.9026 46.9234 89.7165 46.9234C90.093 46.9234 90.4797 46.7809 90.7645 46.5469L90.3983 45.855ZM94.2027 46.028C93.2971 46.028 92.6561 45.3971 92.5238 44.5221H96.665C96.665 42.6398 95.7391 41.4188 94.1314 41.4188C92.6765 41.4188 91.5063 42.5787 91.5063 44.1558C91.5063 45.7736 92.7477 46.9234 94.2128 46.9234C94.9556 46.9234 95.8713 46.6079 96.3394 46.1094L95.7085 45.4582C95.3931 45.7838 94.7521 46.028 94.2027 46.028ZM94.1721 42.3142C95.0777 42.3142 95.5763 42.9043 95.6882 43.7183H92.534C92.6968 42.8636 93.3582 42.3142 94.1721 42.3142ZM98.8907 42.5482V41.5409H97.8834V46.8013H98.8907V43.8099C98.9823 42.8941 99.7556 42.2938 100.844 42.2938V41.4188C99.9387 41.4188 99.2265 41.8563 98.8907 42.5482ZM105.664 48.6327C106.417 48.6226 106.977 48.2257 107.353 47.2795L109.673 41.5409H108.625L107.028 45.6922L105.339 41.5409H104.26L106.519 46.8318L106.254 47.3914C106.081 47.6967 105.858 47.7984 105.532 47.7984C105.328 47.7984 105.094 47.7475 104.891 47.6356L104.667 48.4089C104.942 48.5513 105.308 48.6327 105.664 48.6327ZM113.064 46.9234C114.559 46.9234 115.821 45.6617 115.821 44.166C115.821 42.6703 114.559 41.4188 113.064 41.4188C111.558 41.4188 110.286 42.6703 110.286 44.166C110.286 45.6617 111.558 46.9234 113.064 46.9234ZM113.064 46.0483C112.097 46.0483 111.293 45.1937 111.293 44.166C111.293 43.1485 112.097 42.2938 113.064 42.2938C114.01 42.2938 114.814 43.1485 114.814 44.166C114.814 45.1937 114.01 46.0483 113.064 46.0483ZM120.622 41.5409V44.9495C120.541 45.5701 119.91 46.0483 119.177 46.0483C118.465 46.0483 117.966 45.4989 117.966 44.7154V41.5409H116.979V44.8884C116.979 46.0789 117.793 46.9234 118.953 46.9234C119.666 46.9234 120.307 46.5571 120.622 46.0382V46.8013H121.629V41.5409H120.622ZM124.149 42.5482V41.5409H123.142V46.8013H124.149V43.8099C124.24 42.8941 125.014 42.2938 126.102 42.2938V41.4188C125.197 41.4188 124.485 41.8563 124.149 42.5482ZM134.046 39.6891V42.4465C133.639 41.8054 132.988 41.4188 132.174 41.4188C130.79 41.4188 129.752 42.5584 129.752 44.166C129.752 45.7838 130.79 46.9234 132.174 46.9234C132.988 46.9234 133.639 46.5367 134.046 45.8855V46.8013H135.043V39.6891H134.046ZM132.418 46.0483C131.451 46.0483 130.77 45.2649 130.77 44.166C130.77 43.0671 131.451 42.2938 132.418 42.2938C133.364 42.2938 134.046 43.0671 134.046 44.166C134.046 45.2649 133.364 46.0483 132.418 46.0483ZM138.966 46.028C138.06 46.028 137.419 45.3971 137.287 44.5221H141.428C141.428 42.6398 140.502 41.4188 138.895 41.4188C137.44 41.4188 136.269 42.5787 136.269 44.1558C136.269 45.7736 137.511 46.9234 138.976 46.9234C139.719 46.9234 140.634 46.6079 141.103 46.1094L140.472 45.4582C140.156 45.7838 139.515 46.028 138.966 46.028ZM138.935 42.3142C139.841 42.3142 140.339 42.9043 140.451 43.7183H137.297C137.46 42.8636 138.121 42.3142 138.935 42.3142ZM145.058 45.855C144.946 45.9669 144.743 46.0483 144.519 46.0483C144.224 46.0483 143.979 45.7838 143.979 45.4175V42.3956H145.221V41.5409H143.979V40.0961H142.993V41.5409H142.199V42.3956H142.993V45.4887C142.993 46.3332 143.562 46.9234 144.376 46.9234C144.753 46.9234 145.139 46.7809 145.424 46.5469L145.058 45.855ZM148.659 41.4188C148.079 41.4188 147.418 41.5714 146.665 41.9479L147.031 42.6907C147.489 42.4566 147.998 42.2531 148.516 42.2531C149.564 42.2531 149.87 42.9552 149.87 43.6166V43.7794C149.361 43.6064 148.801 43.4945 148.282 43.4945C147.123 43.4945 146.176 44.1965 146.176 45.2445C146.176 46.2722 147 46.9234 148.12 46.9234C148.761 46.9234 149.483 46.6283 149.87 46.0789V46.8013H150.857V43.6166C150.857 42.3142 150.073 41.4188 148.659 41.4188ZM148.313 46.1297C147.652 46.1297 147.143 45.7838 147.143 45.214C147.143 44.6442 147.733 44.2474 148.435 44.2474C148.954 44.2474 149.442 44.3186 149.87 44.4509V45.153C149.697 45.8041 148.964 46.1297 148.313 46.1297ZM152.812 40.6659C153.138 40.6659 153.412 40.381 153.412 40.0554C153.412 39.74 153.138 39.4551 152.812 39.4551C152.466 39.4551 152.201 39.74 152.201 40.0554C152.201 40.381 152.466 40.6659 152.812 40.6659ZM152.303 46.8013H153.311V41.5409H152.303V46.8013ZM154.768 46.8013H155.765V39.6891H154.768V46.8013ZM159.135 46.9234C160.284 46.9234 161.129 46.2925 161.129 45.2954C161.129 44.2474 160.203 43.9625 159.338 43.7081C158.453 43.4334 158.127 43.3113 158.127 42.9043C158.127 42.5075 158.534 42.2837 159.053 42.2837C159.511 42.2837 160.04 42.4566 160.549 42.772L160.997 42.0293C160.427 41.6528 159.735 41.4188 159.053 41.4188C157.934 41.4188 157.13 42.0496 157.14 43.0162C157.14 43.8709 157.741 44.2169 158.951 44.5526C159.603 44.7358 160.142 44.8884 160.142 45.3768C160.142 45.7838 159.735 46.0585 159.145 46.0585C158.524 46.0585 157.924 45.8245 157.364 45.4175L156.886 46.1399C157.517 46.6486 158.361 46.9234 159.135 46.9234ZM167.419 41.4188C166.839 41.4188 166.177 41.5714 165.424 41.9479L165.791 42.6907C166.249 42.4566 166.757 42.2531 167.276 42.2531C168.324 42.2531 168.629 42.9552 168.629 43.6166V43.7794C168.121 43.6064 167.561 43.4945 167.042 43.4945C165.882 43.4945 164.936 44.1965 164.936 45.2445C164.936 46.2722 165.76 46.9234 166.879 46.9234C167.52 46.9234 168.243 46.6283 168.629 46.0789V46.8013H169.616V43.6166C169.616 42.3142 168.833 41.4188 167.419 41.4188ZM167.073 46.1297C166.411 46.1297 165.903 45.7838 165.903 45.214C165.903 44.6442 166.493 44.2474 167.195 44.2474C167.714 44.2474 168.202 44.3186 168.629 44.4509V45.153C168.457 45.8041 167.724 46.1297 167.073 46.1297ZM172.976 46.9234C174.126 46.9234 174.97 46.2925 174.97 45.2954C174.97 44.2474 174.044 43.9625 173.179 43.7081C172.294 43.4334 171.969 43.3113 171.969 42.9043C171.969 42.5075 172.376 42.2837 172.894 42.2837C173.352 42.2837 173.881 42.4566 174.39 42.772L174.838 42.0293C174.268 41.6528 173.576 41.4188 172.894 41.4188C171.775 41.4188 170.971 42.0496 170.982 43.0162C170.982 43.8709 171.582 44.2169 172.793 44.5526C173.444 44.7358 173.983 44.8884 173.983 45.3768C173.983 45.7838 173.576 46.0585 172.986 46.0585C172.365 46.0585 171.765 45.8245 171.205 45.4175L170.727 46.1399C171.358 46.6486 172.203 46.9234 172.976 46.9234ZM179.551 40.6659C179.876 40.6659 180.151 40.381 180.151 40.0554C180.151 39.74 179.876 39.4551 179.551 39.4551C179.205 39.4551 178.94 39.74 178.94 40.0554C178.94 40.381 179.205 40.6659 179.551 40.6659ZM179.042 46.8013H180.049V41.5409H179.042V46.8013ZM183.969 45.855C183.857 45.9669 183.653 46.0483 183.429 46.0483C183.134 46.0483 182.89 45.7838 182.89 45.4175V42.3956H184.131V41.5409H182.89V40.0961H181.903V41.5409H181.11V42.3956H181.903V45.4887C181.903 46.3332 182.473 46.9234 183.287 46.9234C183.663 46.9234 184.05 46.7809 184.335 46.5469L183.969 45.855ZM190.481 41.4188C189.901 41.4188 189.24 41.5714 188.487 41.9479L188.853 42.6907C189.311 42.4566 189.82 42.2531 190.338 42.2531C191.386 42.2531 191.692 42.9552 191.692 43.6166V43.7794C191.183 43.6064 190.623 43.4945 190.104 43.4945C188.945 43.4945 187.998 44.1965 187.998 45.2445C187.998 46.2722 188.822 46.9234 189.942 46.9234C190.583 46.9234 191.305 46.6283 191.692 46.0789V46.8013H192.679V43.6166C192.679 42.3142 191.895 41.4188 190.481 41.4188ZM190.135 46.1297C189.474 46.1297 188.965 45.7838 188.965 45.214C188.965 44.6442 189.555 44.2474 190.257 44.2474C190.776 44.2474 191.264 44.3186 191.692 44.4509V45.153C191.519 45.8041 190.786 46.1297 190.135 46.1297ZM197.056 41.4188C196.242 41.4188 195.59 41.8054 195.183 42.4465V41.5409H194.186V48.5513H195.183V45.8855C195.59 46.5367 196.242 46.9234 197.056 46.9234C198.439 46.9234 199.477 45.7838 199.477 44.166C199.477 42.5584 198.439 41.4188 197.056 41.4188ZM196.811 46.0483C195.865 46.0483 195.183 45.2649 195.183 44.166C195.183 43.0671 195.865 42.2938 196.811 42.2938C197.778 42.2938 198.46 43.0671 198.46 44.166C198.46 45.2649 197.778 46.0483 196.811 46.0483ZM203.614 41.4188C202.8 41.4188 202.148 41.8054 201.741 42.4465V41.5409H200.744V48.5513H201.741V45.8855C202.148 46.5367 202.8 46.9234 203.614 46.9234C204.997 46.9234 206.035 45.7838 206.035 44.166C206.035 42.5584 204.997 41.4188 203.614 41.4188ZM203.369 46.0483C202.423 46.0483 201.741 45.2649 201.741 44.166C201.741 43.0671 202.423 42.2938 203.369 42.2938C204.336 42.2938 205.018 43.0671 205.018 44.166C205.018 45.2649 204.336 46.0483 203.369 46.0483ZM209.663 46.028C208.757 46.028 208.116 45.3971 207.984 44.5221H212.125C212.125 42.6398 211.199 41.4188 209.592 41.4188C208.137 41.4188 206.966 42.5787 206.966 44.1558C206.966 45.7736 208.208 46.9234 209.673 46.9234C210.416 46.9234 211.331 46.6079 211.799 46.1094L211.169 45.4582C210.853 45.7838 210.212 46.028 209.663 46.028ZM209.632 42.3142C210.538 42.3142 211.036 42.9043 211.148 43.7183H207.994C208.157 42.8636 208.818 42.3142 209.632 42.3142ZM215.501 41.4188C214.921 41.4188 214.259 41.5714 213.506 41.9479L213.873 42.6907C214.33 42.4566 214.839 42.2531 215.358 42.2531C216.406 42.2531 216.711 42.9552 216.711 43.6166V43.7794C216.203 43.6064 215.643 43.4945 215.124 43.4945C213.964 43.4945 213.018 44.1965 213.018 45.2445C213.018 46.2722 213.842 46.9234 214.961 46.9234C215.602 46.9234 216.325 46.6283 216.711 46.0789V46.8013H217.698V43.6166C217.698 42.3142 216.915 41.4188 215.501 41.4188ZM215.155 46.1297C214.493 46.1297 213.985 45.7838 213.985 45.214C213.985 44.6442 214.575 44.2474 215.277 44.2474C215.796 44.2474 216.284 44.3186 216.711 44.4509V45.153C216.538 45.8041 215.806 46.1297 215.155 46.1297ZM220.213 42.5482V41.5409H219.206V46.8013H220.213V43.8099C220.305 42.8941 221.078 42.2938 222.167 42.2938V41.4188C221.261 41.4188 220.549 41.8563 220.213 42.5482ZM228.554 46.9234C230.049 46.9234 231.311 45.6617 231.311 44.166C231.311 42.6703 230.049 41.4188 228.554 41.4188C227.048 41.4188 225.776 42.6703 225.776 44.166C225.776 45.6617 227.048 46.9234 228.554 46.9234ZM228.554 46.0483C227.587 46.0483 226.783 45.1937 226.783 44.166C226.783 43.1485 227.587 42.2938 228.554 42.2938C229.5 42.2938 230.304 43.1485 230.304 44.166C230.304 45.1937 229.5 46.0483 228.554 46.0483ZM235.166 41.4188C234.453 41.4188 233.812 41.7851 233.497 42.304V41.5409H232.49V46.8013H233.497V43.3927C233.578 42.772 234.209 42.2938 234.942 42.2938C235.654 42.2938 236.153 42.8433 236.153 43.6267V46.8013H237.14V43.4538C237.14 42.2633 236.326 41.4188 235.166 41.4188ZM241.492 46.8013H242.489V39.6891H241.492V46.8013ZM246.368 46.028C245.462 46.028 244.821 45.3971 244.689 44.5221H248.83C248.83 42.6398 247.904 41.4188 246.296 41.4188C244.841 41.4188 243.671 42.5787 243.671 44.1558C243.671 45.7736 244.913 46.9234 246.378 46.9234C247.121 46.9234 248.036 46.6079 248.504 46.1094L247.873 45.4582C247.558 45.7838 246.917 46.028 246.368 46.028ZM246.337 42.3142C247.243 42.3142 247.741 42.9043 247.853 43.7183H244.699C244.862 42.8636 245.523 42.3142 246.337 42.3142ZM253.996 41.5409V42.3854C253.599 41.7953 252.928 41.4188 252.134 41.4188C250.75 41.4188 249.743 42.4465 249.743 43.9116C249.743 45.3768 250.75 46.4146 252.134 46.4146C252.928 46.4146 253.579 46.0585 253.996 45.4582V46.2213C253.996 47.137 253.314 47.6763 252.185 47.6763C251.554 47.6763 250.923 47.4626 250.537 47.0963L250.14 47.8493C250.638 48.2563 251.452 48.5513 252.338 48.5513C253.894 48.5513 255.003 47.5949 255.003 46.2417V41.5409H253.996ZM252.389 45.5396C251.452 45.5396 250.791 44.8681 250.791 43.9116C250.791 42.9654 251.452 42.2938 252.389 42.2938C253.325 42.2938 253.996 42.9654 253.996 43.9116C253.996 44.8681 253.325 45.5396 252.389 45.5396ZM258.714 41.4188C258.134 41.4188 257.472 41.5714 256.719 41.9479L257.086 42.6907C257.544 42.4566 258.052 42.2531 258.571 42.2531C259.619 42.2531 259.924 42.9552 259.924 43.6166V43.7794C259.416 43.6064 258.856 43.4945 258.337 43.4945C257.177 43.4945 256.231 44.1965 256.231 45.2445C256.231 46.2722 257.055 46.9234 258.174 46.9234C258.815 46.9234 259.538 46.6283 259.924 46.0789V46.8013H260.911V43.6166C260.911 42.3142 260.128 41.4188 258.714 41.4188ZM258.368 46.1297C257.706 46.1297 257.198 45.7838 257.198 45.214C257.198 44.6442 257.788 44.2474 258.49 44.2474C259.009 44.2474 259.497 44.3186 259.924 44.4509V45.153C259.751 45.8041 259.019 46.1297 258.368 46.1297ZM262.368 46.8013H263.365V39.6891H262.368V46.8013ZM79.4657 53.6891V56.4465C79.0588 55.8054 78.4076 55.4188 77.5936 55.4188C76.2098 55.4188 75.172 56.5584 75.172 58.166C75.172 59.7838 76.2098 60.9234 77.5936 60.9234C78.4076 60.9234 79.0588 60.5367 79.4657 59.8855V60.8013H80.4629V53.6891H79.4657ZM77.8378 60.0483C76.8712 60.0483 76.1895 59.2649 76.1895 58.166C76.1895 57.0671 76.8712 56.2938 77.8378 56.2938C78.784 56.2938 79.4657 57.0671 79.4657 58.166C79.4657 59.2649 78.784 60.0483 77.8378 60.0483ZM84.467 60.9234C85.9627 60.9234 87.2244 59.6617 87.2244 58.166C87.2244 56.6703 85.9627 55.4188 84.467 55.4188C82.9611 55.4188 81.6893 56.6703 81.6893 58.166C81.6893 59.6617 82.9611 60.9234 84.467 60.9234ZM84.467 60.0483C83.5004 60.0483 82.6966 59.1937 82.6966 58.166C82.6966 57.1485 83.5004 56.2938 84.467 56.2938C85.4132 56.2938 86.217 57.1485 86.217 58.166C86.217 59.1937 85.4132 60.0483 84.467 60.0483ZM90.8856 60.9234C91.6691 60.9234 92.3508 60.5978 92.8595 60.0789L92.1778 59.4582C91.8522 59.8245 91.3842 60.0483 90.8958 60.0483C89.9292 60.0483 89.1355 59.1937 89.1355 58.166C89.1355 57.1485 89.9292 56.2938 90.8856 56.2938C91.374 56.2938 91.8319 56.5075 92.1473 56.8636L92.829 56.2328C92.3304 55.7342 91.6487 55.4188 90.8958 55.4188C89.3899 55.4188 88.1181 56.6703 88.1181 58.166C88.1181 59.6617 89.3899 60.9234 90.8856 60.9234ZM97.5597 55.5409V58.9495C97.4783 59.5701 96.8475 60.0483 96.1149 60.0483C95.4027 60.0483 94.9041 59.4989 94.9041 58.7154V55.5409H93.9171V58.8884C93.9171 60.0789 94.7311 60.9234 95.8911 60.9234C96.6033 60.9234 97.2443 60.5571 97.5597 60.0382V60.8013H98.567V55.5409H97.5597ZM105.909 55.4188C105.116 55.4188 104.444 55.8258 104.2 56.477C103.895 55.8258 103.274 55.4188 102.511 55.4188C101.84 55.4188 101.29 55.7546 101.026 56.2735V55.5409H100.018V60.8013H101.026V57.5148C101.026 56.7924 101.555 56.2938 102.308 56.2938C102.969 56.2938 103.427 56.8331 103.427 57.6064V60.8013H104.414V57.5148C104.414 56.7924 104.943 56.2938 105.696 56.2938C106.357 56.2938 106.815 56.8331 106.815 57.6064V60.8013H107.802V57.4538C107.802 56.2633 107.008 55.4188 105.909 55.4188ZM111.661 60.028C110.755 60.028 110.114 59.3971 109.982 58.5221H114.123C114.123 56.6398 113.197 55.4188 111.59 55.4188C110.135 55.4188 108.964 56.5787 108.964 58.1558C108.964 59.7736 110.206 60.9234 111.671 60.9234C112.414 60.9234 113.329 60.6079 113.798 60.1094L113.167 59.4582C112.851 59.7838 112.21 60.028 111.661 60.028ZM111.63 56.3142C112.536 56.3142 113.034 56.9043 113.146 57.7183H109.992C110.155 56.8636 110.816 56.3142 111.63 56.3142ZM117.967 55.4188C117.254 55.4188 116.613 55.7851 116.298 56.304V55.5409H115.291V60.8013H116.298V57.3927C116.379 56.772 117.01 56.2938 117.743 56.2938C118.455 56.2938 118.954 56.8433 118.954 57.6267V60.8013H119.941V57.4538C119.941 56.2633 119.127 55.4188 117.967 55.4188ZM123.844 59.855C123.732 59.9669 123.529 60.0483 123.305 60.0483C123.01 60.0483 122.765 59.7838 122.765 59.4175V56.3956H124.007V55.5409H122.765V54.0961H121.778V55.5409H120.985V56.3956H121.778V59.4887C121.778 60.3332 122.348 60.9234 123.162 60.9234C123.539 60.9234 123.925 60.7809 124.21 60.5469L123.844 59.855ZM127.14 60.9234C128.289 60.9234 129.134 60.2925 129.134 59.2954C129.134 58.2474 128.208 57.9625 127.343 57.7081C126.458 57.4334 126.132 57.3113 126.132 56.9043C126.132 56.5075 126.539 56.2837 127.058 56.2837C127.516 56.2837 128.045 56.4566 128.554 56.772L129.002 56.0293C128.432 55.6528 127.74 55.4188 127.058 55.4188C125.939 55.4188 125.135 56.0496 125.145 57.0162C125.145 57.8709 125.746 58.2169 126.956 58.5526C127.608 58.7358 128.147 58.8884 128.147 59.3768C128.147 59.7838 127.74 60.0585 127.15 60.0585C126.529 60.0585 125.929 59.8245 125.369 59.4175L124.891 60.1399C125.522 60.6486 126.366 60.9234 127.14 60.9234ZM130.935 60.9234C131.302 60.9234 131.597 60.6079 131.597 60.2315C131.597 59.8855 131.302 59.5701 130.935 59.5701C130.549 59.5701 130.254 59.8855 130.254 60.2315C130.254 60.6079 130.549 60.9234 130.935 60.9234Z" fill="#1D2939"/>
<g clip-path="url(#clip0_135_4406)">
<path d="M51.7919 48.5657C52.4184 48.5665 53.0388 48.4435 53.6175 48.2038C54.1963 47.9641 54.722 47.6123 55.1644 47.1688C55.6079 46.7264 55.9597 46.2007 56.1994 45.6219C56.4392 45.0432 56.5622 44.4227 56.5613 43.7963C56.5621 43.1698 56.4391 42.5494 56.1994 41.9707C55.9597 41.3919 55.6079 40.8662 55.1644 40.4238C54.722 39.9803 54.1963 39.6285 53.6175 39.3888C53.0388 39.149 52.4184 39.026 51.7919 39.0269C51.1655 39.0261 50.545 39.1491 49.9663 39.3888C49.3875 39.6285 48.8618 39.9803 48.4194 40.4238C47.9759 40.8662 47.6241 41.3919 47.3844 41.9707C47.1447 42.5494 47.0217 43.1698 47.0225 43.7963C47.0217 44.4227 47.1447 45.0432 47.3844 45.6219C47.6241 46.2007 47.9759 46.7264 48.4194 47.1688C48.8618 47.6123 49.3875 47.9641 49.9663 48.2038C50.545 48.4435 51.1655 48.5665 51.7919 48.5657Z" fill="black" stroke="black" stroke-width="2.5437" stroke-linejoin="round"/>
<path fill-rule="evenodd" clip-rule="evenodd" d="M51.7915 46.8965C51.9496 46.8965 52.1012 46.8336 52.2131 46.7218C52.3249 46.61 52.3877 46.4584 52.3877 46.3003C52.3877 46.1422 52.3249 45.9905 52.2131 45.8787C52.1012 45.7669 51.9496 45.7041 51.7915 45.7041C51.6334 45.7041 51.4817 45.7669 51.3699 45.8787C51.2581 45.9905 51.1953 46.1422 51.1953 46.3003C51.1953 46.4584 51.2581 46.61 51.3699 46.7218C51.4817 46.8336 51.6334 46.8965 51.7915 46.8965Z" fill="white"/>
<path d="M51.792 40.9346V44.7501" stroke="white" stroke-width="1.90777" stroke-linecap="round" stroke-linejoin="round"/>
</g>
<path d="M133.158 389.036C134.689 389.036 135.784 387.923 135.784 386.356V382.812H134.876V386.338C134.876 387.433 134.164 388.216 133.158 388.216C132.143 388.216 131.43 387.433 131.43 386.338V382.812H130.531V386.356C130.531 387.923 131.617 389.036 133.158 389.036ZM139.47 384.219C138.847 384.219 138.286 384.54 138.01 384.994V384.326H137.128V388.929H138.01V385.946C138.081 385.403 138.633 384.985 139.274 384.985C139.897 384.985 140.334 385.465 140.334 386.151V388.929H141.197V386C141.197 384.958 140.485 384.219 139.47 384.219ZM146.001 382.706V385.118C145.645 384.557 145.076 384.219 144.363 384.219C143.152 384.219 142.244 385.216 142.244 386.623C142.244 388.038 143.152 389.036 144.363 389.036C145.076 389.036 145.645 388.697 146.001 388.127V388.929H146.874V382.706H146.001ZM144.577 388.27C143.731 388.27 143.135 387.584 143.135 386.623C143.135 385.661 143.731 384.985 144.577 384.985C145.405 384.985 146.001 385.661 146.001 386.623C146.001 387.584 145.405 388.27 144.577 388.27ZM150.306 388.252C149.514 388.252 148.953 387.7 148.837 386.934H152.461C152.461 385.287 151.651 384.219 150.244 384.219C148.971 384.219 147.947 385.234 147.947 386.614C147.947 388.03 149.033 389.036 150.315 389.036C150.965 389.036 151.766 388.76 152.176 388.323L151.624 387.754C151.348 388.038 150.787 388.252 150.306 388.252ZM150.28 385.003C151.072 385.003 151.508 385.519 151.606 386.231H148.846C148.989 385.483 149.567 385.003 150.28 385.003ZM154.408 385.207V384.326H153.527V388.929H154.408V386.311C154.488 385.51 155.165 384.985 156.118 384.985V384.219C155.325 384.219 154.702 384.602 154.408 385.207ZM158.144 388.929H158.954L160.067 385.51L161.171 388.929H161.981L163.53 384.326H162.631L161.58 387.754L160.441 384.326H159.693L158.553 387.754L157.494 384.326H156.595L158.144 388.929ZM165.346 385.207V384.326H164.464V388.929H165.346V386.311C165.426 385.51 166.102 384.985 167.055 384.985V384.219C166.263 384.219 165.64 384.602 165.346 385.207ZM168.351 383.56C168.636 383.56 168.876 383.311 168.876 383.026C168.876 382.75 168.636 382.501 168.351 382.501C168.048 382.501 167.817 382.75 167.817 383.026C167.817 383.311 168.048 383.56 168.351 383.56ZM167.906 388.929H168.787V384.326H167.906V388.929ZM172.217 388.101C172.119 388.199 171.941 388.27 171.745 388.27C171.487 388.27 171.273 388.038 171.273 387.718V385.074H172.359V384.326H171.273V383.062H170.41V384.326H169.715V385.074H170.41V387.78C170.41 388.519 170.908 389.036 171.62 389.036C171.95 389.036 172.288 388.911 172.537 388.706L172.217 388.101ZM175.59 388.101C175.492 388.199 175.314 388.27 175.118 388.27C174.86 388.27 174.647 388.038 174.647 387.718V385.074H175.733V384.326H174.647V383.062H173.783V384.326H173.089V385.074H173.783V387.78C173.783 388.519 174.282 389.036 174.994 389.036C175.323 389.036 175.662 388.911 175.911 388.706L175.59 388.101ZM178.919 388.252C178.127 388.252 177.566 387.7 177.45 386.934H181.074C181.074 385.287 180.264 384.219 178.857 384.219C177.584 384.219 176.56 385.234 176.56 386.614C176.56 388.03 177.646 389.036 178.928 389.036C179.578 389.036 180.379 388.76 180.789 388.323L180.237 387.754C179.961 388.038 179.4 388.252 178.919 388.252ZM178.892 385.003C179.685 385.003 180.121 385.519 180.219 386.231H177.459C177.602 385.483 178.18 385.003 178.892 385.003ZM184.437 384.219C183.814 384.219 183.253 384.54 182.977 384.994V384.326H182.095V388.929H182.977V385.946C183.048 385.403 183.6 384.985 184.241 384.985C184.864 384.985 185.3 385.465 185.3 386.151V388.929H186.164V386C186.164 384.958 185.452 384.219 184.437 384.219ZM192.527 384.219C191.815 384.219 191.245 384.557 190.889 385.118V382.706H190.017V388.929H190.889V388.127C191.245 388.697 191.815 389.036 192.527 389.036C193.738 389.036 194.646 388.038 194.646 386.623C194.646 385.216 193.738 384.219 192.527 384.219ZM192.314 388.27C191.486 388.27 190.889 387.584 190.889 386.623C190.889 385.661 191.486 384.985 192.314 384.985C193.16 384.985 193.756 385.661 193.756 386.623C193.756 387.584 193.16 388.27 192.314 388.27ZM196.521 390.531C197.18 390.522 197.669 390.175 197.999 389.347L200.028 384.326H199.111L197.714 387.958L196.236 384.326H195.292L197.269 388.955L197.037 389.445C196.886 389.712 196.69 389.801 196.405 389.801C196.227 389.801 196.022 389.757 195.844 389.659L195.648 390.335C195.889 390.46 196.209 390.531 196.521 390.531Z" fill="#667085"/>
<g clip-path="url(#clip1_135_4406)">
<path fill-rule="evenodd" clip-rule="evenodd" d="M221.167 384.786L221.04 383.673C219.868 383.282 217.97 383.074 216.963 384.03C215.582 385.29 216.036 388.478 218.797 388.539C220.186 388.591 220.767 388.244 221.485 388.035C221.412 387.966 221.321 387.861 221.303 387.775L221.312 386.558C221.321 386.419 221.394 386.341 221.494 386.237H220.377C220.486 386.35 220.559 386.41 220.568 386.575L220.586 387.957C218.742 388.565 217.371 388.035 217.081 386.654C216.808 384.742 217.516 383.76 219.069 383.682C220.113 383.665 220.749 384.038 221.167 384.786Z" fill="#005291"/>
<path fill-rule="evenodd" clip-rule="evenodd" d="M225.822 383.354L225.839 383.939C225.716 383.834 225.567 383.695 225.373 383.695L223.836 383.703V385.477H225.33C225.4 385.477 225.47 385.407 225.514 385.346V386.194C225.47 386.141 225.373 386.028 225.321 386.028H223.836V388.177H225.532C225.778 388.195 226.024 387.889 226.147 387.793L226.006 388.544H222.975C223.019 388.501 223.133 388.335 223.133 388.186V383.703C223.133 383.502 223.045 383.406 222.975 383.345L225.822 383.354Z" fill="#005291"/>
<path fill-rule="evenodd" clip-rule="evenodd" d="M232.014 383.345L229.807 388.258C229.781 388.353 229.709 388.457 229.53 388.527L230.629 388.536C230.513 388.457 230.486 388.388 230.486 388.31L231.005 387.014H232.827L233.426 388.275C233.453 388.388 233.364 388.457 233.185 388.544L234.606 388.536C234.472 388.466 234.382 388.423 234.275 388.258C234.275 388.258 232.023 383.362 232.014 383.345ZM231.934 384.701L231.166 386.449L232.684 386.458C232.684 386.458 231.943 384.701 231.934 384.701Z" fill="#005291"/>
<path fill-rule="evenodd" clip-rule="evenodd" d="M209.31 388.544C209.355 388.501 209.471 388.335 209.471 388.186V385.932H206.68V388.186C206.68 388.335 206.787 388.501 206.832 388.544H205.749C205.794 388.501 205.901 388.335 205.901 388.186V383.703C205.91 383.502 205.812 383.406 205.749 383.345H206.832C206.769 383.406 206.671 383.502 206.68 383.703V385.468H209.471V383.703C209.471 383.502 209.381 383.406 209.31 383.345H210.401C210.33 383.406 210.24 383.502 210.24 383.703V388.186C210.24 388.335 210.357 388.501 210.401 388.544H209.31Z" fill="#005291"/>
<path fill-rule="evenodd" clip-rule="evenodd" d="M230.508 391.04C230.515 391.022 230.547 390.968 230.547 390.923V390.204H229.782V390.923C229.782 390.968 229.814 391.022 229.83 391.04H229.53C229.546 391.022 229.578 390.968 229.578 390.923V389.493C229.578 389.43 229.546 389.394 229.53 389.376H229.83C229.806 389.394 229.782 389.43 229.782 389.493V390.051H230.547V389.493C230.547 389.43 230.523 389.394 230.508 389.376H230.799C230.783 389.394 230.76 389.43 230.76 389.493V390.923C230.76 390.968 230.791 391.022 230.799 391.04H230.508Z" fill="#005291"/>
<path fill-rule="evenodd" clip-rule="evenodd" d="M233.966 389.376C234.443 389.376 234.817 389.746 234.817 390.208C234.817 390.67 234.443 391.04 233.966 391.04C233.499 391.04 233.125 390.67 233.125 390.208C233.125 389.746 233.499 389.376 233.966 389.376ZM233.966 389.571C234.293 389.571 234.564 389.857 234.564 390.208C234.564 390.569 234.293 390.855 233.966 390.855C233.648 390.855 233.377 390.569 233.377 390.208C233.377 389.857 233.648 389.571 233.966 389.571Z" fill="#005291"/>
<path fill-rule="evenodd" clip-rule="evenodd" d="M231.325 389.376H231.517L232.05 390.51L232.528 389.376H232.83C232.799 389.403 232.775 389.43 232.775 389.475C232.775 389.475 232.878 390.645 232.918 390.905C232.926 390.959 232.966 390.995 233.014 391.04H232.544C232.584 390.995 232.631 390.965 232.631 390.914C232.631 390.72 232.544 389.871 232.544 389.871L232.05 391.022L231.525 389.88C231.525 389.88 231.4 390.722 231.389 390.914C231.387 390.96 231.421 390.995 231.461 391.031H231.11C231.158 391.004 231.182 390.961 231.19 390.914C231.232 390.654 231.365 389.466 231.365 389.466C231.365 389.448 231.357 389.403 231.325 389.376Z" fill="#005291"/>
<path fill-rule="evenodd" clip-rule="evenodd" d="M227.257 388.547C227.313 388.504 227.457 388.338 227.457 388.189V383.706C227.457 383.505 227.346 383.409 227.257 383.348H228.442C228.353 383.409 228.241 383.505 228.241 383.706V388.189C228.241 388.338 228.386 388.504 228.442 388.547H227.257Z" fill="#005291"/>
<path fill-rule="evenodd" clip-rule="evenodd" d="M213.006 386.571C212.316 386.03 211.713 385.302 211.476 383.752C211.45 383.606 211.345 383.467 211.231 383.345L212.501 383.353C212.378 383.475 212.256 383.589 212.256 383.777C212.299 384.306 212.353 385.148 213.381 386.125C213.426 386.168 213.534 386.256 213.534 386.256L213.178 386.685C213.178 386.685 213.074 386.623 213.006 386.571Z" fill="#E33E3C"/>
<path fill-rule="evenodd" clip-rule="evenodd" d="M213.382 386.312C212.561 387.042 212.45 388.01 213.145 388.837C213.298 389.021 213.382 389.1 213.425 389.179C213.522 389.329 213.583 389.513 213.566 389.763C213.778 389.616 213.844 389.194 213.627 388.887C213.143 388.203 212.78 387.529 213.741 386.762C214.452 386.195 215.181 385.462 215.427 383.762C215.453 383.612 215.567 383.47 215.673 383.345L214.4 383.353C214.523 383.478 214.654 383.595 214.654 383.787C214.602 384.328 214.429 385.379 213.382 386.312Z" fill="#18BC2B"/>
<path fill-rule="evenodd" clip-rule="evenodd" d="M213.862 386.666C213.868 386.673 213.874 386.681 213.876 386.685C214.109 387.03 214.234 387.413 214.223 387.755C214.204 388.414 213.613 388.76 213.437 389.208C213.334 389.466 213.362 389.651 213.474 390C213.034 389.69 213.113 389.152 213.208 388.894C213.35 388.513 213.762 388.275 213.764 387.703C213.764 387.422 213.655 387.221 213.485 386.999C213.557 386.921 213.644 386.842 213.742 386.762C213.784 386.731 213.823 386.699 213.862 386.666Z" fill="#E33E3C"/>
</g>
<defs>
<filter id="filter0_dd_135_4406" x="0.281503" y="0.87919" width="369.472" height="422.89" filterUnits="userSpaceOnUse" color-interpolation-filters="sRGB">
<feFlood flood-opacity="0" result="BackgroundImageFix"/>
<feColorMatrix in="SourceAlpha" type="matrix" values="0 0 0 0 0 0 0 0 0 0 0 0 0 0 0 0 0 0 127 0" result="hardAlpha"/>
<feOffset/>
<feGaussianBlur stdDeviation="0.25437"/>
<feColorMatrix type="matrix" values="0 0 0 0 1 0 0 0 0 1 0 0 0 0 1 0 0 0 0.2 0"/>
<feBlend mode="normal" in2="BackgroundImageFix" result="effect1_dropShadow_135_4406"/>
<feColorMatrix in="SourceAlpha" type="matrix" values="0 0 0 0 0 0 0 0 0 0 0 0 0 0 0 0 0 0 127 0" result="hardAlpha"/>
<feOffset dy="1.59769"/>
<feGaussianBlur stdDeviation="6.35925"/>
<feColorMatrix type="matrix" values="0 0 0 0 0.620833 0 0 0 0 0.620833 0 0 0 0 0.620833 0 0 0 0.2 0"/>
<feBlend mode="normal" in2="effect1_dropShadow_135_4406" result="effect2_dropShadow_135_4406"/>
<feBlend mode="normal" in="SourceGraphic" in2="effect2_dropShadow_135_4406" result="shape"/>
</filter>
<filter id="filter1_d_135_4406" x="34.6217" y="327.419" width="301.428" height="35.437" filterUnits="userSpaceOnUse" color-interpolation-filters="sRGB">
<feFlood flood-opacity="0" result="BackgroundImageFix"/>
<feColorMatrix in="SourceAlpha" type="matrix" values="0 0 0 0 0 0 0 0 0 0 0 0 0 0 0 0 0 0 127 0" result="hardAlpha"/>
<feOffset dy="0.635925"/>
<feGaussianBlur stdDeviation="0.635925"/>
<feComposite in2="hardAlpha" operator="out"/>
<feColorMatrix type="matrix" values="0 0 0 0 0.579167 0 0 0 0 0.579167 0 0 0 0 0.579167 0 0 0 0.42 0"/>
<feBlend mode="normal" in2="BackgroundImageFix" result="effect1_dropShadow_135_4406"/>
<feBlend mode="normal" in="SourceGraphic" in2="effect1_dropShadow_135_4406" result="shape"/>
</filter>
<clipPath id="clip0_135_4406">
<rect width="11.4466" height="11.4466" fill="white" transform="translate(46.0684 38.073)"/>
</clipPath>
<clipPath id="clip1_135_4406">
<rect width="33.3861" height="13.3544" fill="white" transform="translate(205.685 380.518)"/>
</clipPath>
</defs>
</svg>
