<svg width="53" height="58" viewBox="0 0 53 58" fill="none" xmlns="http://www.w3.org/2000/svg">
<path fill-rule="evenodd" clip-rule="evenodd" d="M21.1291 32.0181C22.9711 29.6784 22.5676 26.2884 20.2279 24.4463C18.6582 23.2106 16.6159 22.9855 14.8854 23.6776L19.224 18.1666C20.2064 16.9187 22.0144 16.7036 23.2623 17.686L26.8931 20.5444C27.0847 19.9796 27.374 19.4373 27.764 18.9419C29.606 16.6022 32.996 16.1987 35.3358 18.0407C37.6755 19.8828 38.079 23.2728 36.237 25.6125C35.847 26.1078 35.3877 26.5164 34.8837 26.8352L38.5137 29.693C39.7615 30.6754 39.9767 32.4834 38.9943 33.7313L35.2588 38.4762C35.1417 37.033 34.4471 35.6408 33.2197 34.6745C30.88 32.8325 27.49 33.236 25.648 35.5757C23.8059 37.9155 24.2094 41.3055 26.5492 43.1475C27.7765 44.1138 29.2929 44.4621 30.7232 44.2372L26.5426 49.5475C25.5602 50.7954 23.7522 51.0106 22.5043 50.0281L18.8748 47.1708C18.6832 47.7351 18.3941 48.277 18.0044 48.772C16.1624 51.1117 12.7724 51.5152 10.4326 49.6732C8.09288 47.8312 7.68939 44.4412 9.53142 42.1014C9.92107 41.6065 10.38 41.1982 10.8836 40.8795L7.25292 38.0211C6.00506 37.0387 5.78987 35.2307 6.77228 33.9828L11.556 27.9065C11.2894 29.7512 11.9877 31.6836 13.5573 32.9193C15.8971 34.7614 19.2871 34.3579 21.1291 32.0181Z" fill="#4A1FB8"/>
<path fill-rule="evenodd" clip-rule="evenodd" d="M27.5503 7.59076C26.5679 8.83862 26.7831 10.6466 28.0309 11.629L29.7325 12.9686C29.8017 12.8715 29.8737 12.7756 29.9482 12.681C32.527 9.40531 37.273 8.84043 40.5487 11.4193C43.8243 13.9981 44.3892 18.7441 41.8104 22.0198C41.7358 22.1144 41.6595 22.2068 41.5814 22.297L43.2823 23.6361C44.5302 24.6185 46.3382 24.4033 47.3206 23.1554L52.2123 16.9419C53.1948 15.694 52.9796 13.886 51.7317 12.9036L36.4803 0.896594C35.2325 -0.0858205 33.4245 0.129372 32.4421 1.37724L27.5503 7.59076Z" fill="#47BFA3"/>
</svg>
